<svg width="228" height="255" viewBox="0 0 228 255" fill="none" xmlns="http://www.w3.org/2000/svg">
<path d="M36.5268 174.84L39.8321 177.377C45.5332 181.753 53.7768 177.688 53.7768 170.501L35.696 97.4105L49.6675 64.1032L100.623 71.5048L117.881 64.1032L154.043 71.5048H207.464V148.866V170.501V178.408C207.464 181.5 208.8 184.442 211.128 186.476L213.437 188.493C218.519 192.934 221.435 199.354 221.435 206.104C221.435 212.333 218.95 218.305 214.53 222.695L213.482 223.736C209.484 227.708 205.028 231.191 200.209 234.112L195.982 236.674C182.421 244.895 167.155 250.176 151.419 252.145C142.831 253.219 134.081 253.317 125.473 252.419L107.068 250.501C98.4263 249.6 89.9437 247.551 81.8444 244.406C74.1221 241.409 66.8125 237.441 60.0914 232.599L49.6675 225.088L48.4519 225.773C43.8608 228.357 38.6813 229.714 33.4129 229.714H32.0946C27.4583 229.714 22.9073 228.467 18.9185 226.104C12.7979 222.478 8.27426 216.672 6.25442 209.85L3.9948 202.219C2.67185 197.751 2 193.116 2 188.456V181.508C2 176.9 4.13331 172.551 7.7776 169.731C12.287 166.241 18.3934 165.632 23.5032 168.163L34.7576 173.737C35.3817 174.047 35.9743 174.416 36.5268 174.84Z" fill="#FEDDCC" stroke="#1E0507" stroke-width="3"/>
<path d="M161.737 107.823L165.861 121.332C166.169 122.338 166.325 123.384 166.325 124.437C166.325 129.58 163.251 134.226 158.517 136.238L150.524 139.634L152.918 141.329C155.893 143.437 159.676 144.05 163.165 142.991L167.352 141.622C171.318 140.326 174.81 137.882 177.385 134.599C177.385 139.583 174.124 143.981 169.354 145.428L166.325 146.348L164.164 150.364C163.546 151.513 163.593 152.905 164.286 154.01L164.781 154.798C165.619 156.134 167.408 156.491 168.695 155.579L171.531 152.065C172.607 150.73 174.527 150.443 175.947 151.403L179.161 153.575C180.423 154.429 182.125 153.524 182.125 152.001C182.125 150.733 183.153 149.705 184.421 149.705H185.352C185.828 149.705 186.299 149.599 186.729 149.396L189.63 148.026C191.971 146.921 194.528 146.348 197.117 146.348H198.716V152.223L209.791 148.791C214.816 147.234 218.96 143.644 221.218 138.891C222.572 136.04 223.572 133.034 224.196 129.941L224.563 128.119C225.27 124.615 225.626 121.049 225.626 117.474V114.605C225.626 112.276 225.357 109.955 224.823 107.689L223.906 103.792C223.477 101.966 223.384 100.076 223.634 98.2167C223.908 96.1856 223.893 94.126 223.592 92.0988L222.978 87.9668C222.116 82.1713 220.269 76.566 217.516 71.3938L215.673 67.9313C211.679 60.4267 206.16 53.8399 199.471 48.5934L193.462 43.8801C188.581 40.0524 183.023 37.1791 177.078 35.4108C169.999 33.3054 162.539 32.8156 155.246 33.9777L150.524 34.7301C150.524 29.4884 153.149 24.595 157.516 21.6958L163.165 17.9454C159.123 15.7987 154.386 15.3718 150.026 16.7615L148.944 17.1062L136.304 22.9808C136.304 17.2719 139.362 12.0002 144.317 9.16565L152.657 4.39504C153.798 3.74239 153.335 2 152.021 2H148.788C145.226 2 141.685 2.54411 138.288 3.6135L129.304 6.44131C124.629 7.91251 120.594 10.9288 117.86 14.9952C115.463 18.5595 114.183 22.7571 114.183 27.0521V28.8554L108.246 28.2451C96.0113 26.9873 83.6485 28.2918 71.9455 32.0754L69.8044 32.7677C58.9662 36.2717 49.0222 42.0964 40.6649 49.836C28.8177 60.8078 20.2682 74.8688 15.9791 90.4361L13.0604 101.029L11.7005 105.845C9.49497 113.655 9.61432 121.938 12.0439 129.681C12.7177 131.828 13.0604 134.065 13.0604 136.315V143.215C13.0604 147.529 13.5223 151.831 14.4382 156.047L14.6988 157.247C16.594 165.971 23.3321 172.831 32.021 174.882L39.9936 179.339C44.6409 181.938 48.7377 185.416 52.0551 189.581L55.7216 194.184C57.7185 192.593 58.8817 190.179 58.8817 187.626V180.638C58.8817 178.6 59.8454 176.683 61.4805 175.467L63.7685 173.766C65.6645 172.356 66.7819 170.132 66.7819 167.77C66.7819 166.922 66.926 166.081 67.2081 165.282L67.244 165.181C68.3874 161.942 71.449 159.776 74.8839 159.776H86.6391C87.4528 159.776 88.1125 159.116 88.1125 158.302C88.1125 156.798 86.8935 155.579 85.3898 155.579H84.7096C83.8501 155.579 83.0225 155.254 82.3929 154.669L77.0522 149.705C79.6784 149.705 82.2974 149.43 84.8662 148.884L96.8028 146.348C104.536 145.253 111.783 141.931 117.661 136.789L122.083 132.92L119.027 131.621C115.827 130.262 112.915 128.306 110.446 125.858C105.254 120.71 102.333 113.701 102.333 106.389V103.061C102.333 100.606 102.757 98.1697 103.585 95.8591C106.625 87.3821 114.661 81.7271 123.666 81.7271H125.614C128.504 81.7271 131.37 82.2467 134.075 83.261L141.155 85.9155C151.047 89.6241 158.652 97.7199 161.737 107.823Z" fill="#423229" stroke="#1E0507" stroke-width="3"/>
<ellipse cx="148.944" cy="221.879" rx="4.74013" ry="1.67846" fill="#1E0507"/>
<ellipse cx="30.6453" cy="20.8997" rx="30.6453" ry="20.8997" transform="matrix(0.961337 0.275376 -0.246039 0.96926 72.3257 193.345)" fill="#FFAFA4"/>
<ellipse cx="19.1806" cy="13.752" rx="19.1806" ry="13.752" transform="matrix(0.854941 -0.518726 0.473559 0.880762 175.804 213.244)" fill="#FFAFA4"/>
<path d="M111.903 169.767L129.401 174.864C133.667 176.107 138.05 176.889 142.475 177.196L146.066 177.446L149.715 177.699C156.135 178.145 162.562 177.144 168.522 174.769L184.629 168.351L215.742 159.684C217.068 159.315 218.372 160.373 218.287 161.751L217.874 168.451C217.582 173.195 216.129 177.785 213.644 181.817L207.409 191.931C206.468 193.457 205.387 194.891 204.18 196.214L193.487 207.932C192.207 209.335 190.78 210.596 189.23 211.693L185.473 214.351C180.491 217.875 174.051 218.637 168.342 216.376C164.272 214.765 160.907 211.745 158.861 207.87L154.68 199.95C153.443 197.606 151.893 195.439 150.072 193.511L148.615 191.966C147.725 191.023 146.194 191.153 145.491 192.232L142.554 196.736C140.192 200.359 138.219 204.223 136.668 208.265C134.592 213.675 129.931 217.657 124.263 218.863L120.89 219.58C115.46 220.736 109.783 219.938 104.853 217.328L94.1811 211.677C90.5966 209.779 87.5423 207.009 85.3018 203.624L67.7117 177.047L61.5002 166.403C61.0952 165.709 61.625 164.85 62.4237 164.905L82.6237 166.309L98.8281 167.435C103.254 167.743 107.637 168.524 111.903 169.767Z" fill="#EEF140" stroke="#1E0507" stroke-width="3"/>
<path d="M63.5318 174.637L55.8603 179.823C55.7679 179.886 55.6704 179.94 55.5689 179.987L47.4898 183.665C46.1655 184.268 44.6611 183.3 44.6611 181.845V181.12C44.6611 180.38 45.0696 179.7 45.723 179.353L55.0984 174.374C55.5016 174.159 55.8194 173.814 55.999 173.394L59.1524 166.024C59.4673 165.288 60.1907 164.811 60.9912 164.811H62.4117C63.5162 164.811 64.4117 165.706 64.4117 166.811V172.98C64.4117 173.645 64.082 174.265 63.5318 174.637Z" fill="#EEF140" stroke="#1E0507" stroke-width="2"/>
<path d="M160.463 166.733L161.282 164.55C162.23 162.023 164.473 160.201 167.124 159.804V159.804C169.774 159.408 172.404 160.501 173.972 162.651L175.327 164.51" stroke="#1E0507" stroke-width="3"/>
<path d="M101.542 163.972L102.644 161.924C103.912 159.567 106.372 158.097 109.048 158.097V158.097C111.724 158.097 114.184 159.567 115.451 161.924L116.553 163.972" stroke="#1E0507" stroke-width="3"/>
</svg>
