<svg width="186" height="220" viewBox="0 0 186 220" fill="none" xmlns="http://www.w3.org/2000/svg">
<path d="M45.4036 41.736L33.5601 66.3519C31.1269 71.4091 26.6089 75.1535 21.1879 76.6055L19.7715 76.9849C9.29215 79.7919 3.66981 91.1731 7.80849 101.201C11.2408 109.518 20.2944 114.016 28.9954 111.726L29.5446 111.581C38.0168 109.352 47.3576 113.642 46.5045 122.361C45.0592 137.132 34.5049 152.672 34.5049 164.562C34.5049 172.321 43.0747 190.163 55.2404 203.472C77.2594 227.561 102.586 189.172 134.103 180.699C147.277 177.158 159.812 176.246 162.438 174.648C171.382 169.204 191.104 135.896 157.661 112.539C154.152 110.088 157.661 70.6023 157.661 63.1705C157.661 59.3943 144.027 39.1439 130.633 22.1943C122.687 12.1387 109.258 17.224 108.398 30.0115C107.499 43.3882 91.5338 49.7943 81.6376 40.7494L76.2034 35.7827C66.5354 26.9463 51.0823 29.9332 45.4036 41.736Z" fill="#B81C1C"/>
<path d="M58.3926 127.933V85.4658H139.612L84.4518 97.9806V124.748L58.3926 127.933Z" fill="#E1DDB2" stroke="black" stroke-width="2"/>
<path d="M59.1105 135.871L58.3242 93.4502L114.584 92.4073L91.6402 114.922L78.3707 135.514L59.1105 135.871Z" fill="#302F2C" stroke="black" stroke-width="2"/>
<path d="M65.3802 136.404L24.9001 133.878C20.1981 122.669 19.5772 110.372 23.1538 99.1607L23.6672 97.5511C24.2239 95.8061 25.9636 94.7469 27.8368 95.0124L92.4093 104.165L65.3802 136.404Z" fill="#DB5A5A" stroke="black"/>
<path d="M94.3066 103.433L22.5928 129.416V165.934L94.3066 140.653V103.433Z" fill="#E1DDB2" stroke="black"/>
<path d="M27.3232 137.367L89.9281 115.47L90.1248 123.592L27.5095 145.061L27.3232 137.367Z" fill="#343232"/>
<path d="M27.1886 131.81L89.7831 109.486L89.9281 115.47L27.3232 137.367L27.1886 131.81Z" fill="#F0E571"/>
<path d="M27.5095 145.061L90.1248 123.592L90.28 130.004L27.6441 150.618L27.5095 145.061Z" fill="#DB5A5A"/>
<path d="M27.6441 150.618L90.28 130.004L90.4767 138.126L27.8718 160.022L27.6441 150.618Z" fill="#343232"/>
<path d="M119.335 84.2958L57.376 85.3534C57.6379 77.9468 62.2605 70.5926 70.8455 64.4955C79.8116 58.1277 92.4318 53.6199 106.578 51.7941C120.718 49.9692 135.439 50.946 148.22 54.5464C161.017 58.1515 170.976 64.1331 176.509 71.369C182.001 78.5508 182.821 86.5396 178.92 94.0779C174.981 101.69 166.41 108.483 154.499 113.188C142.608 117.886 128.236 120.165 113.841 119.614C104.273 119.249 95.1096 117.649 87.0276 114.991C84.8447 114.273 83.745 112.545 83.6492 110.706C83.5524 108.848 84.4851 106.84 86.5182 105.651L119.858 86.159L123.156 84.2306L119.335 84.2958Z" fill="#DB5A5A" stroke="black" stroke-width="2"/>
<path d="M80.9385 154.418V109.837L86.7468 111.683C101.059 116.233 116.147 117.828 131.095 116.371L144.246 114.194C149.665 113.296 154.926 111.621 159.867 109.221C168.021 105.26 174.73 98.843 179.049 90.8723L181.735 85.915V133.897C181.735 139.456 178.824 144.609 174.061 147.477C150.851 161.455 122.976 165.457 96.7695 158.575L80.9385 154.418Z" fill="#E1DDB2" stroke="black" stroke-width="2"/>
<path d="M81.1389 124.178L81.9713 111.066C82.0554 109.742 83.3828 108.86 84.6346 109.297L94.4663 112.725C99.6125 114.519 105.027 115.435 110.485 115.435L118.087 115.435C124.433 115.435 130.771 114.912 137.036 113.872L142.632 112.943C150.285 111.672 157.66 109.065 164.419 105.243C164.631 105.123 164.832 104.984 165.02 104.829L172.242 98.8828L172.666 98.4687C176.036 95.1777 178.856 91.3679 181.016 87.1858C182.302 91.7694 181.222 123.585 181.016 128.538C180.909 131.126 179.971 132.123 178.916 132.405C176.933 132.937 175.708 130.574 175.673 128.526C175.628 125.906 175.608 122.105 175.754 118.579C175.96 113.627 170.474 115.924 167.705 117.691C166.439 118.286 163.058 114.55 163.676 133.291C163.686 133.59 163.675 133.914 163.635 134.211C163.046 138.523 161.423 140.23 159.685 140.725C156.573 141.611 155.562 137.266 156.496 134.171C157.109 132.14 157.605 129.623 157.605 126.793C157.605 114.459 146.586 127.514 145.783 128.482C145.749 128.522 145.726 128.562 145.704 128.61C143.63 133.153 137.343 133.422 135.451 128.817C134.764 127.146 134.198 125.529 133.905 124.178C132.424 117.352 131.166 128.318 132.648 135.144C133.574 139.411 131.309 140.162 129.24 139.89C128.21 139.754 127.513 138.851 127.334 137.829L126.866 135.162C126.441 132.744 123.039 132.561 122.338 134.92C121.716 136.694 119.093 136.259 119.093 134.382L119.093 130.068C119.093 128.504 117.62 127.363 116.101 127.751L113.72 128.361C113.341 128.458 113.115 128.848 113.221 129.223L114.014 132.051C114.206 132.738 114.128 133.475 113.795 134.109L112.806 135.991C112.158 137.224 110.286 136.655 110.445 135.273C110.471 135.043 110.425 134.811 110.313 134.609L107.558 129.649C106.586 127.898 104.034 127.99 103.177 129.807L102.749 130.712C102.423 131.403 102.374 132.193 102.615 132.917L103.407 135.305C103.742 136.314 103.735 137.407 103.388 138.414L102.844 139.99C101.837 142.913 98.0089 143.603 96.0638 141.211C95.6107 140.654 95.3197 139.982 95.2225 139.27L94.3274 132.706C94.0917 130.977 91.8372 130.471 90.8719 131.93L90.6953 132.197C89.8939 133.408 88.0513 133.17 87.5955 131.796C87.289 130.872 86.2807 130.384 85.3617 130.715L82.6867 131.677C82.445 131.764 82.2393 131.93 82.1026 132.147C81.44 133.201 79.8113 132.597 80.0049 131.369L81.1389 124.178Z" fill="#DB5A5A" stroke="black" stroke-width="2"/>
<rect x="90.1348" y="48.5903" width="5.03098" height="30.0052" rx="2.51549" fill="#F9DA9B" stroke="black"/>
<path d="M88.1211 50.3141V48.2711C88.1211 47.0564 88.6507 45.9021 89.5715 45.1099C91.0158 43.8673 93.1187 43.7617 94.6802 44.8533L94.9025 45.0086C96.112 45.8541 96.8325 47.2369 96.8325 48.7126V52.6762C96.8325 53.2201 96.5384 53.7216 96.0636 53.9871C95.0625 54.547 93.8286 53.8232 93.8286 52.6762V51.1573V49.6587C93.8286 49.161 93.4251 48.7575 92.9274 48.7575C92.4297 48.7575 92.0262 49.161 92.0262 49.6587V50.6303C92.0262 50.9747 91.9293 51.3121 91.7466 51.604C91.121 52.6037 89.7284 52.7624 88.8939 51.929L88.7178 51.7531C88.3357 51.3717 88.1211 50.854 88.1211 50.3141Z" fill="#E1DDB2" stroke="black"/>
<path d="M91.9802 35.0356L91.5479 36.22C90.1063 40.1695 90.2614 44.5255 91.9802 48.3625C95.216 45.7359 95.941 41.0875 93.6587 37.6003L91.9802 35.0356Z" fill="#DB5A5A" stroke="black"/>
<path d="M92.3154 46.7305V41.563" stroke="black"/>
<rect x="133.212" y="63.6704" width="5.03098" height="30.0052" rx="2.51549" fill="#F9DA9B" stroke="black"/>
<path d="M131.119 70.7091V68.6661C131.119 67.4514 131.649 66.2971 132.57 65.5049C134.014 64.2623 136.117 64.1567 137.678 65.2483L137.901 65.4036C139.11 66.2491 139.831 67.6319 139.831 69.1076V73.0712C139.831 73.6151 139.536 74.1166 139.062 74.3821C138.061 74.942 136.827 74.2183 136.827 73.0712V71.5523V70.0537C136.827 69.556 136.423 69.1526 135.925 69.1526C135.428 69.1526 135.024 69.556 135.024 70.0537V71.0253C135.024 71.3697 134.927 71.7071 134.745 71.9991C134.119 72.9987 132.726 73.1574 131.892 72.3241L131.716 72.1482C131.334 71.7667 131.119 71.249 131.119 70.7091Z" fill="#E1DDB2" stroke="black"/>
<path d="M134.804 54.146L134.372 55.3304C132.931 59.2799 133.086 63.6358 134.804 67.4728C138.04 64.8462 138.765 60.1979 136.483 56.7107L134.804 54.146Z" fill="#DB5A5A" stroke="black"/>
<path d="M135.14 65.8409V60.6733" stroke="black"/>
<rect x="150.478" y="63.9849" width="5.03098" height="30.0052" rx="2.51549" fill="#F9DA9B" stroke="black"/>
<path d="M148.637 66.9933V64.9503C148.637 63.7356 149.166 62.5813 150.087 61.7891C151.531 60.5465 153.634 60.4409 155.196 61.5325L155.418 61.6878C156.628 62.5333 157.348 63.9161 157.348 65.3918V69.3554C157.348 69.8993 157.054 70.4008 156.579 70.6663C155.578 71.2261 154.344 70.5024 154.344 69.3554V67.8365V66.3379C154.344 65.8402 153.941 65.4367 153.443 65.4367C152.945 65.4367 152.542 65.8402 152.542 66.3379V67.3095C152.542 67.6539 152.445 67.9913 152.262 68.2832C151.637 69.2829 150.244 69.4416 149.41 68.6082L149.233 68.4323C148.851 68.0509 148.637 67.5332 148.637 66.9933Z" fill="#E1DDB2" stroke="black"/>
<path d="M152.323 50.4302L151.891 51.6146C150.449 55.5641 150.604 59.92 152.323 63.757C155.559 61.1304 156.284 56.4821 154.002 52.9949L152.323 50.4302Z" fill="#DB5A5A" stroke="black"/>
<path d="M152.657 62.1251V56.9575" stroke="black"/>
<rect x="112.257" y="41.6895" width="5.03098" height="30.0052" rx="2.51549" fill="#F9DA9B" stroke="black"/>
<path d="M110.416 44.6979V42.6548C110.416 41.4402 110.946 40.2859 111.866 39.4937C113.311 38.2511 115.414 38.1455 116.975 39.237L117.197 39.3924C118.407 40.2379 119.127 41.6206 119.127 43.0964V47.06C119.127 47.6039 118.833 48.1054 118.359 48.3709C117.357 48.9307 116.124 48.207 116.124 47.06V45.5411V44.0425C116.124 43.5448 115.72 43.1413 115.222 43.1413C114.725 43.1413 114.321 43.5448 114.321 44.0425V45.0141C114.321 45.3585 114.224 45.6959 114.042 45.9878C113.416 46.9875 112.023 47.1462 111.189 46.3128L111.013 46.1369C110.631 45.7555 110.416 45.2378 110.416 44.6979Z" fill="#E1DDB2" stroke="black"/>
<path d="M114.101 28.1348L113.669 29.3192C112.227 33.2687 112.382 37.6246 114.101 41.4616C117.337 38.835 118.062 34.1867 115.78 30.6995L114.101 28.1348Z" fill="#DB5A5A" stroke="black"/>
<path d="M114.437 39.8296V34.6621" stroke="black"/>
<path d="M102.395 28.1348L96.614 33.611" stroke="black"/>
<path d="M156.068 47.4307L160.588 40.8751" stroke="black"/>
<path d="M163.658 45.1577L158.411 51.1465" stroke="black"/>
<rect x="44.4824" y="79.3794" width="5.03098" height="30.0052" rx="2.51549" fill="#F9DA9B" stroke="black"/>
<path d="M42.6416 82.3878V80.3448C42.6416 79.1301 43.1712 77.9758 44.092 77.1836C45.5363 75.9411 47.6392 75.8354 49.2007 76.927L49.423 77.0823C50.6325 77.9278 51.353 79.3106 51.353 80.7863V84.7499C51.353 85.2939 51.0589 85.7953 50.5841 86.0608C49.583 86.6207 48.3491 85.897 48.3491 84.7499V83.2311V81.7324C48.3491 81.2347 47.9456 80.8313 47.4479 80.8313C46.9502 80.8313 46.5467 81.2347 46.5467 81.7324V82.704C46.5467 83.0484 46.4498 83.3859 46.2671 83.6778C45.6415 84.6774 44.2489 84.8361 43.4144 84.0028L43.2383 83.8269C42.8563 83.4454 42.6416 82.9277 42.6416 82.3878Z" fill="#E1DDB2" stroke="black"/>
<path d="M46.3269 65.8247L45.8946 67.0091C44.453 70.9586 44.6081 75.3146 46.3269 79.1515C49.5627 76.5249 50.2877 71.8766 48.0054 68.3894L46.3269 65.8247Z" fill="#DB5A5A" stroke="black"/>
<path d="M46.6621 77.5196V72.3521" stroke="black"/>
<path d="M80.6885 31.3198L85.7097 37.4998" stroke="black"/>
<path d="M33.4434 64.2319L40.5707 67.7823" stroke="black"/>
<path d="M40.2002 57.2056L43.911 64.2507" stroke="black"/>
<path d="M52.9512 56.2695L50.4307 63.8228" stroke="black"/>
<path d="M58.1074 63.1704L53.0845 69.3489" stroke="black"/>
<path d="M97.6074 21.7646L94.4901 29.0918" stroke="black"/>
<path d="M82.8115 22.2954L86.8705 29.1459" stroke="black"/>
<path d="M89.7129 17.5176L89.762 25.4801" stroke="black"/>
<path d="M126.872 46.7144L131.241 53.3712" stroke="black"/>
<path d="M119.971 26.9507L125.513 21.2338" stroke="black"/>
<path d="M151.799 37.4351L152.374 45.377" stroke="black"/>
<path d="M144.39 40.875L148.407 47.7498" stroke="black"/>
<path d="M143.328 46.7144L148.549 52.7269" stroke="black"/>
<path d="M106.699 21.2339L112.173 27.0164" stroke="black"/>
<path d="M110.863 14.5972L113.782 22.0057" stroke="black"/>
<path d="M118.485 13.271L117.317 21.1474" stroke="black"/>
<path d="M126.017 13.8545L121.079 20.1012" stroke="black"/>
<path d="M134.684 50.9521L134.304 42.9985" stroke="black"/>
<path d="M138.551 54.9009L140.74 47.245" stroke="black"/>
<path d="M125.279 53.6152L130.404 59.7096" stroke="black"/>
</svg>
