<svg width="268" height="228" viewBox="0 0 268 228" fill="none" xmlns="http://www.w3.org/2000/svg">
<path d="M135.915 196.987C135.915 200.667 133.332 203.31 130.54 203.31C127.747 203.31 125.164 200.667 125.164 196.987C125.164 193.306 127.747 190.663 130.54 190.663C133.332 190.663 135.915 193.306 135.915 196.987Z" fill="#12699E" stroke="black" stroke-width="3"/>
<path d="M135.915 224.489C135.915 224.584 135.907 224.649 135.899 224.69C135.896 224.706 135.893 224.719 135.89 224.728C135.815 224.77 135.572 224.862 134.983 224.887C134.376 224.912 133.638 224.862 132.728 224.794C132.689 224.791 132.65 224.788 132.611 224.785C131.763 224.721 130.799 224.649 129.828 224.649C128.796 224.649 127.866 224.763 127.125 224.854L127.08 224.86C126.266 224.96 125.805 225.007 125.479 224.973C125.416 224.967 125.376 224.958 125.351 224.952C125.293 224.842 125.164 224.475 125.164 223.541C125.164 221.755 125.79 220.443 126.709 219.571C127.642 218.688 128.976 218.165 130.54 218.165C133.332 218.165 135.915 220.808 135.915 224.489Z" fill="#12699E" stroke="black" stroke-width="3"/>
<path d="M166.71 179.198L125.578 69.6712L227.5 37.0001L238.156 165.597C221.434 184.612 194.437 190.825 171.086 181.033L166.71 179.198Z" fill="#E88428" stroke="black" stroke-width="4"/>
<path d="M226.06 34.7582C228.24 42.9297 225.032 52.0956 217.298 60.4115C209.591 68.6983 197.632 75.8276 183.213 79.6752C168.793 83.5228 154.872 83.2992 144.061 79.9533C133.213 76.5958 125.864 70.2467 123.684 62.0753C121.504 53.9038 124.712 44.7379 132.446 36.422C140.152 28.1352 152.112 21.0059 166.531 17.1583C180.951 13.3107 194.872 13.5343 205.682 16.8802C216.531 20.2377 223.879 26.5868 226.06 34.7582Z" fill="white" stroke="black" stroke-width="5"/>
<path d="M212.774 38.3036C214.348 44.2024 212.071 50.9111 206.345 57.0905C200.644 63.2418 191.761 68.5605 181.013 71.4287C170.264 74.2968 159.912 74.1105 151.905 71.6167C143.861 69.1116 138.545 64.429 136.971 58.5303C135.397 52.6315 137.674 45.9228 143.4 39.7434C149.1 33.5921 157.983 28.2733 168.732 25.4052C179.481 22.5371 189.833 22.7234 197.84 25.2171C205.884 27.7223 211.2 32.4048 212.774 38.3036Z" fill="#E88428" stroke="black" stroke-width="5"/>
<path d="M190.596 39.9843L192.276 41.5592C196.982 45.9708 203.835 47.2169 209.793 44.7441C211.63 43.9813 213.334 46.0762 212.214 47.7201L209.159 52.1996C208.117 53.7274 206.935 55.1544 205.627 56.462L202.281 59.8085C200.767 61.3226 199.136 62.7158 197.405 63.9753L193.502 66.8136C190.904 68.7029 187.992 70.1172 184.901 70.9908C173.682 74.1614 161.816 74.2569 150.548 71.2672L148.897 70.8293C146.001 70.0608 143.237 68.86 140.698 67.2673L125.044 57.4449C121.977 55.5208 119.537 52.7462 118.02 49.4593L116.511 46.1912C115.326 43.6228 115.249 40.6798 116.3 38.0533C118.496 32.5634 124.854 30.0471 130.213 32.5476L133.298 33.9876C134.144 34.3821 134.946 34.863 135.692 35.4226L153.537 48.8062L161.587 40.7561C165.541 36.8022 170.904 34.5809 176.495 34.5809L176.932 34.5809C182.008 34.5809 186.893 36.5128 190.596 39.9843Z" fill="#12699E"/>
<path d="M153.537 48.8062L161.587 40.7561C165.541 36.8022 170.904 34.5809 176.495 34.5809L176.932 34.5809C182.008 34.5809 186.893 36.5128 190.596 39.9843L192.276 41.5592C196.982 45.9708 203.835 47.2169 209.793 44.7441V44.7441C211.63 43.9813 213.334 46.0762 212.214 47.7201L209.159 52.1996C208.117 53.7274 206.935 55.1544 205.627 56.462L202.281 59.8085C200.767 61.3226 199.136 62.7158 197.405 63.9753L193.502 66.8136C190.904 68.7029 187.992 70.1172 184.901 70.9908V70.9908C173.682 74.1614 161.816 74.2569 150.548 71.2672L148.897 70.8293C146.001 70.0608 143.237 68.86 140.698 67.2673L125.044 57.4449C121.977 55.5208 119.537 52.7462 118.02 49.4593L116.511 46.1912C115.326 43.6228 115.249 40.6798 116.3 38.0533V38.0533C118.496 32.5634 124.854 30.0471 130.213 32.5476L133.298 33.9876C134.144 34.3821 134.946 34.863 135.692 35.4226L153.537 48.8062ZM153.537 48.8062L153.818 48.9186C162.822 52.5201 172.81 52.8136 182.01 49.747L184.833 48.8062" stroke="black" stroke-width="4"/>
<path d="M64.9081 223.498L53.5 118.759L159.5 114L148.567 224L64.9081 223.498Z" fill="#B81C1C" stroke="black" stroke-width="3"/>
<path d="M160.046 114.005C160.046 122.463 154.583 130.492 144.967 136.533C135.385 142.552 121.992 146.357 107.068 146.357C92.1436 146.357 78.7506 142.552 69.1681 136.533C59.552 130.492 54.0889 122.463 54.0889 114.005C54.0889 105.548 59.552 97.5191 69.1681 91.4782C78.7506 85.4584 92.1436 81.6533 107.068 81.6533C121.992 81.6533 135.385 85.4584 144.967 91.4782C154.583 97.5191 160.046 105.548 160.046 114.005Z" fill="white" stroke="black" stroke-width="5"/>
<path d="M146.295 114.005C146.295 120.111 142.366 126.005 135.24 130.5C128.146 134.973 118.192 137.822 107.067 137.822C95.9425 137.822 85.9887 134.973 78.8952 130.5C71.7693 126.005 67.8398 120.111 67.8398 114.005C67.8398 107.9 71.7693 102.005 78.8952 97.5111C85.9887 93.0373 95.9425 90.1885 107.067 90.1885C118.192 90.1885 128.146 93.0373 135.24 97.5111C142.366 102.005 146.295 107.9 146.295 114.005Z" fill="#12699E" stroke="black" stroke-width="5"/>
<path d="M20.1194 198.126L4 220.458H16.5L134.95 225.742C139.245 225.934 142.326 221.656 140.782 217.643C139.897 215.34 137.684 213.82 135.216 213.82H133.622H121.293L132.117 210.117C136.657 208.564 140.227 205.003 141.791 200.466L142.681 197.885C143.555 195.351 143.31 192.566 142.009 190.224C140.344 187.228 137.186 185.369 133.758 185.369H130.194C129.319 185.369 128.447 185.443 127.585 185.59L113.7 187.961C110.864 188.445 107.993 188.688 105.116 188.688H100.693C95.8011 188.688 90.9343 187.984 86.2426 186.598L77.4722 184.007C74.1348 183.021 70.9071 181.696 67.8396 180.053L59.176 175.411L55.8568 140.322L45.4122 147.886C43.2132 149.478 41.178 151.285 39.3365 153.28C33.7273 159.356 30.0883 166.988 28.8979 175.172L28.6074 177.17C27.5067 184.737 24.5948 191.926 20.1194 198.126Z" fill="#FFAFA4"/>
<path d="M121.293 213.82L132.117 210.117C136.657 208.564 140.227 205.003 141.791 200.466L142.681 197.885C143.555 195.351 143.31 192.566 142.009 190.224V190.224C140.344 187.228 137.186 185.369 133.758 185.369H130.194C129.319 185.369 128.447 185.443 127.585 185.59L113.7 187.961C110.864 188.445 107.993 188.688 105.116 188.688H100.693C95.8011 188.688 90.9343 187.984 86.2426 186.598L77.4722 184.007C74.1348 183.021 70.9071 181.696 67.8396 180.053L59.176 175.411L55.8568 140.322L45.4122 147.886C43.2132 149.478 41.178 151.285 39.3365 153.28V153.28C33.7273 159.356 30.0883 166.988 28.8979 175.172L28.6074 177.17C27.5067 184.737 24.5948 191.926 20.1194 198.126L4 220.458H16.5L134.95 225.742C139.245 225.934 142.326 221.656 140.782 217.643V217.643C139.897 215.34 137.684 213.82 135.216 213.82H133.622H121.293ZM121.293 213.82L108.227 215.375C103.682 215.916 99.084 215.843 94.5581 215.157L90.0614 214.476C87.1791 214.039 84.3395 213.356 81.5739 212.434L75.7722 210.501L68.6595 207.655" stroke="black" stroke-width="4"/>
<path d="M94.7394 115.191H83.6365C81.6189 115.191 79.6653 115.898 78.1154 117.19C73.6545 120.907 74.0677 127.882 78.9363 131.046L85.0967 135.05C87.0679 136.332 89.3293 137.098 91.6734 137.278L102.672 138.124C107.323 138.482 112.001 138.262 116.598 137.469C125.6 135.917 134.194 132.126 141.446 126.571L145.646 120.067C147.632 116.993 148.074 113.171 146.843 109.724L145.643 106.363C144.69 103.695 142.163 101.914 139.329 101.914C138.689 101.914 138.052 102.006 137.437 102.186L129.353 104.564C124.627 105.954 120.074 107.875 115.781 110.29L107.068 115.191H94.7394Z" fill="#F7F0D8"/>
<path d="M107.068 115.191H94.7394H83.6365C81.6189 115.191 79.6653 115.898 78.1154 117.19V117.19C73.6545 120.907 74.0677 127.882 78.9363 131.046L85.0967 135.05C87.0679 136.332 89.3293 137.098 91.6734 137.278L102.672 138.124C107.323 138.482 112.001 138.262 116.598 137.469V137.469C125.6 135.917 134.194 132.126 141.446 126.571V126.571L145.646 120.067C147.632 116.993 148.074 113.171 146.843 109.724L145.643 106.363C144.69 103.695 142.163 101.914 139.329 101.914V101.914C138.689 101.914 138.052 102.006 137.437 102.186L129.353 104.564C124.627 105.954 120.074 107.875 115.781 110.29L107.068 115.191ZM107.068 115.191L88.1009 124.675" stroke="black" stroke-width="4"/>
<path d="M137.001 196.605C137.414 199.205 135.283 202.187 131.526 202.784C127.768 203.381 124.818 201.207 124.405 198.607C123.992 196.007 126.122 193.025 129.88 192.428C133.638 191.831 136.587 194.005 137.001 196.605Z" fill="#14689D" stroke="black" stroke-width="4"/>
<path d="M171.616 91.5961C172.029 94.1962 169.898 97.178 166.141 97.7751C162.383 98.3722 159.433 96.1976 159.02 93.5975C158.607 90.9974 160.738 88.0156 164.495 87.4185C168.253 86.8214 171.203 88.996 171.616 91.5961Z" fill="#F7F0D8" stroke="black" stroke-width="4"/>
<path d="M109.024 18.3149C109.437 20.9149 107.307 23.8968 103.549 24.4938C99.7914 25.0909 96.8414 22.9163 96.4283 20.3162C96.0151 17.7162 98.1458 14.7343 101.903 14.1372C105.661 13.5402 108.611 15.7148 109.024 18.3149Z" fill="#14689D" stroke="black" stroke-width="4"/>
<path d="M137.475 222.211C137.594 222.96 137.484 223.237 137.453 223.3L137.453 223.3C137.436 223.334 137.376 223.455 137.007 223.622C136.601 223.806 135.998 223.963 135.099 224.121C134.569 224.214 134.041 224.291 133.456 224.377C133.012 224.442 132.536 224.512 132 224.597C131.48 224.68 131.003 224.761 130.546 224.839C129.917 224.946 129.327 225.047 128.719 225.135C127.707 225.281 126.898 225.348 126.258 225.307C125.617 225.266 125.342 225.128 125.229 225.039C125.161 224.986 124.977 224.824 124.879 224.213C124.466 221.613 126.597 218.631 130.355 218.034C134.112 217.437 137.062 219.611 137.475 222.211Z" fill="#14689D" stroke="black" stroke-width="4"/>
<path d="M261.594 39.1915L266 37V94.4759C266 103.504 262.786 112.237 256.933 119.111L252.208 124.66L236.519 140L234.37 118.943L217.669 123.439C214.846 124.199 211.83 123.448 209.692 121.454C207.975 119.853 207 117.61 207 115.262V112.252C207 106.933 209.747 101.99 214.264 99.1815L216.019 98.0904C218.651 96.4541 220.845 94.2022 222.413 91.529L231.519 76L230.37 46.5283C241.205 46.5283 251.893 44.017 261.594 39.1915Z" fill="#FFAFA4"/>
<path d="M234.37 118.943L217.669 123.439C214.846 124.199 211.83 123.448 209.692 121.454V121.454C207.975 119.853 207 117.61 207 115.262V112.252C207 106.933 209.747 101.99 214.264 99.1815L216.019 98.0904C218.651 96.4541 220.845 94.2022 222.413 91.529L231.519 76L230.37 46.5283V46.5283C241.205 46.5283 251.893 44.017 261.594 39.1915L266 37V94.4759C266 103.504 262.786 112.237 256.933 119.111L252.208 124.66L236.519 140L234.37 118.943ZM234.37 118.943L241.711 109.972C245.1 105.829 247.646 101.064 249.204 95.9433L252.208 86.0708" stroke="black" stroke-width="4"/>
<path d="M228.043 112.676C228.456 115.276 226.325 118.258 222.568 118.855C218.81 119.452 215.86 117.278 215.447 114.678C215.034 112.077 217.164 109.096 220.922 108.499C224.679 107.902 227.629 110.076 228.043 112.676Z" fill="#B81C1C" stroke="black" stroke-width="4"/>
</svg>
