<svg width="287" height="317" viewBox="0 0 287 317" fill="none" xmlns="http://www.w3.org/2000/svg">
<path d="M12.0204 164.339L2.23533 179.083C1.92107 179.556 1.67689 180.072 1.51038 180.616C-0.25075 186.363 6.70751 190.753 11.1365 186.69L11.9487 185.944C12.2443 185.673 12.5129 185.374 12.7507 185.051L20.6594 174.301C24.3779 169.247 30.2134 166.183 36.4851 165.992L40.3207 165.875C46.7672 165.678 52.373 161.399 54.2627 155.232C57.0199 146.235 50.9435 136.94 41.5957 135.857L24.2295 133.843C20.0387 133.357 16.4502 136.825 16.7922 141.03L17.0894 144.683C17.6535 151.619 15.8681 158.542 12.0204 164.339Z" fill="#EEF140"/>
<path d="M28.1275 150.664L29.9887 144.591C30.5638 142.714 32.5514 141.659 34.4281 142.234L41.2085 144.312C43.9281 145.145 45.4571 148.026 44.6237 150.745C44.0895 152.489 42.6731 153.82 40.8998 154.245L33.2213 156.085C29.9981 156.857 27.1564 153.833 28.1275 150.664Z" fill="#F1ABEE"/>
<path d="M46.5106 192.908L54.1434 183.789C56.3326 181.173 59.2717 179.293 62.5638 178.401L68.6172 176.761C71.508 175.978 74.5849 177.027 76.3961 179.412C77.7685 181.219 78.2297 183.559 77.6457 185.752L74.9041 196.046L74.3422 199.414C73.0426 207.203 81.5394 212.884 88.2414 208.707C90.5802 207.249 92.1397 204.817 92.4883 202.083L98.365 156.002C98.8116 152.5 97.6946 148.979 95.3109 146.374C92.9279 143.771 89.5204 142.348 85.9936 142.482L80.8093 142.681C74.6371 142.917 68.8136 145.604 64.6286 150.147L38.8975 178.08C38.2157 178.82 37.6634 179.669 37.2638 180.593L35.0051 185.812C32.4995 191.602 38.5119 197.403 44.2083 194.691C45.095 194.269 45.8803 193.661 46.5106 192.908Z" fill="#EEF140"/>
<path d="M77.9417 168.552L74.9427 165.738C72.7278 163.66 72.3163 160.295 73.9651 157.744C76.9412 153.14 83.9738 154.288 85.3314 159.599L86.3497 163.584C86.7953 165.327 86.2865 167.176 85.0115 168.447C83.0687 170.382 79.9415 170.429 77.9417 168.552Z" fill="#F1ABEE"/>
<path d="M107.273 147.468L100.823 177.445C100.675 178.132 100.633 178.837 100.699 179.536C101.231 185.187 107.996 187.794 112.183 183.962L113.068 183.152C114.212 182.105 115.002 180.728 115.328 179.212L118.292 165.436C120.315 156.036 126.585 148.107 135.265 143.972L144.92 139.371C146.582 138.579 148.394 138.152 150.234 138.116L157.418 137.979C159.208 137.944 160.738 136.683 161.115 134.934C161.398 133.616 160.974 132.247 159.995 131.32L157.605 129.06C154.653 126.267 150.273 125.609 146.631 127.413L136.032 132.661L129.969 136.266C127.612 137.668 124.715 135.587 125.292 132.905L126.351 127.984C126.715 126.295 126.42 124.531 125.527 123.053C123.752 120.111 120.058 118.962 116.927 120.378L116.213 120.701C113.997 121.703 112.389 123.696 111.877 126.073L107.273 147.468Z" fill="#EEF140"/>
<path d="M161.31 189.72L160.629 198.709C160.005 206.95 148.307 207.938 146.31 199.918C145.175 195.362 145.163 190.597 146.277 186.035L151.983 162.655L137.76 159.183C135.4 158.607 133.638 156.637 133.328 154.227C132.611 148.646 138.564 144.634 143.467 147.395L152.304 152.371C153.565 153.081 154.99 153.449 156.437 153.438L181.057 153.254C182.303 153.244 183.545 153.389 184.755 153.684L190.259 155.028C194.342 156.024 196.843 160.141 195.847 164.223L195.747 164.632C194.64 169.169 190.064 171.949 185.527 170.842L166.702 166.247L161.939 185.759C161.622 187.06 161.411 188.385 161.31 189.72Z" fill="#EEF140"/>
<path d="M193.412 137.725L193.841 128.57C193.881 127.721 194.07 126.886 194.4 126.103L197.72 118.221C199.326 114.41 204.852 114.808 205.895 118.81C205.982 119.144 206.028 119.487 206.034 119.832L206.313 137.394C206.341 139.112 206.981 140.763 208.118 142.05C210.326 144.547 213.958 145.204 216.9 143.637L217.431 143.354C219.362 142.326 220.785 140.549 221.366 138.44L227.038 117.861C227.225 117.183 227.52 116.539 227.912 115.956L230.706 111.79C232.996 108.377 238.28 109.516 238.96 113.569C239.076 114.26 239.03 114.968 238.827 115.639L231.389 140.184C230.871 141.892 230.518 143.645 230.334 145.419L228.746 160.743C228.277 165.274 226.709 169.621 224.179 173.409L215.12 186.972C210.412 194.02 200.91 195.97 193.807 191.346L189.34 188.437C187.695 187.366 186.71 185.53 186.727 183.567C186.764 179.476 191.11 173.415 195.056 174.491C195.839 174.705 196.73 174.995 197.746 175.38C198.763 175.765 199.504 176.658 199.74 177.719C200.119 179.418 201.732 180.545 203.458 180.317L205.135 180.096C206.966 179.854 208.532 178.659 209.249 176.956L211.812 170.872C213.708 166.373 212.473 161.164 208.761 157.994C207.883 157.244 206.895 156.635 205.832 156.187L204.774 155.742C197.584 152.712 193.047 145.519 193.412 137.725Z" fill="#EEF140"/>
</svg>
