<svg width="256" height="390" viewBox="0 0 256 390" fill="none" xmlns="http://www.w3.org/2000/svg">
<path d="M123.797 335.383L112.739 355.856C105.133 369.938 89.8854 378.152 73.9419 376.758C70.1756 376.428 66.4444 375.777 62.7893 374.81L48.2844 370.976C41.2143 369.108 34.5292 366.007 28.5361 361.816C14.9322 352.304 7.44107 336.253 8.88782 319.717L10.8572 297.207L18.3888 324.489C20.715 332.916 26.4907 339.968 34.2931 343.91L45.6457 349.645C51.988 352.849 59.2384 353.776 66.1831 352.273L77.2033 349.887C81.3565 348.988 85.2805 347.244 88.7315 344.765L98.8611 337.487C102.368 334.968 105.31 331.743 107.498 328.021L165.772 228.886C166.589 227.496 167.775 226.36 169.198 225.603L171.733 224.256C175.924 222.028 176.572 216.286 172.983 213.179C169.849 210.467 169.873 205.599 173.033 202.917L179.626 197.322C181.369 195.843 181.852 193.352 180.788 191.329C178.991 187.91 181.687 183.858 185.534 184.194L187.427 184.36C190.125 184.596 192.638 182.971 193.531 180.414L215.843 116.508L229.69 60.2766L231.306 52.5342C233.022 44.3116 231.328 35.7445 226.611 28.7938L211.982 7.23454L231.779 24.2433C236.731 28.4977 240.213 34.2067 241.729 40.5564L243.771 49.1047C244.955 54.0639 244.898 59.2386 243.604 64.1703L239.397 80.2119L223.125 123.458L198.923 192.366C198.085 194.752 196.302 196.687 193.993 197.718C189.818 199.582 187.646 204.229 188.893 208.628L189.679 211.399C191.087 216.363 189.308 221.681 185.197 224.798L184.87 225.046C183.38 226.176 182.148 227.611 181.258 229.256L123.797 335.383Z" fill="#F14080" stroke="#F38CAB"/>
<path d="M99.2337 165.159L94.6002 148.17L107.728 157.437L184.425 174.813C195.803 177.391 194.35 194.037 182.698 194.605C179.922 194.741 178.184 197.665 179.393 200.169L180.397 202.249C181.583 204.707 181.744 207.536 180.842 210.112L180.032 212.425C178.362 217.197 172.812 219.333 168.373 216.912L167.46 216.414C165.39 215.285 164.102 213.116 164.102 210.758C164.102 207.972 162.312 205.502 159.664 204.635L102.107 185.792C100.69 185.328 99.2337 186.384 99.2337 187.875C99.2337 189.403 97.7096 190.462 96.2775 189.929L88.0613 186.872C85.3637 185.868 84.4085 182.54 86.1634 180.258L90.3528 174.812L99.2337 165.159Z" fill="#F38CAB" stroke="#F38CAB"/>
<ellipse cx="116.366" cy="167.433" rx="1.93062" ry="4.24736" transform="rotate(16.5 116.366 167.433)" fill="#F14080"/>
<path d="M96.1869 183.954L91.0069 178.019C90.1571 177.046 88.6008 177.202 87.9612 178.325L82.7662 187.445L13.962 287.643C8.88809 295.032 6.79858 304.068 8.11335 312.934C10.008 325.712 17.6003 336.938 28.7534 343.454L33.8489 346.431C47.2153 354.24 63.1452 356.393 78.1049 352.412L78.741 352.242C85.2997 350.497 91.3537 347.227 96.41 342.7L100.464 339.07C102.409 337.328 104.082 335.306 105.429 333.069L166.229 232.036C167.682 229.621 169.699 227.593 172.106 226.127L177.893 222.601C178.752 222.077 178.463 220.763 177.463 220.649L176.152 220.5C172.935 220.133 171.111 216.628 172.656 213.783C173.733 211.8 173.2 209.328 171.403 207.965L165.101 203.184C163.928 202.294 162.62 201.598 161.227 201.123L105.978 182.257C104.453 181.736 102.767 182.295 101.855 183.624C100.527 185.56 97.7303 185.722 96.1869 183.954Z" fill="#B81C1C"/>
<path d="M103.059 126.592L96.469 144.745C95.3729 147.764 96.8491 151.111 99.8178 152.338L108.982 156.124L107.81 157.978C105.096 162.276 103.572 167.217 103.394 172.297C103.304 174.883 104.908 177.227 107.352 178.079L167.409 199.023C168.337 199.347 169.313 198.679 169.347 197.696C169.542 192.123 171.458 186.747 174.831 182.307L177.171 179.228L189.451 183.248C191.536 183.931 193.781 182.807 194.484 180.729L232.31 68.9757C233.363 65.8651 234.153 62.6719 234.673 59.4294L235.541 54.021C238.143 37.8015 230.979 21.5657 217.244 12.555C207.419 6.1094 195.622 3.36836 183.962 4.82192L177.169 5.66869C169.397 6.63753 162.163 10.1463 156.59 15.6499C150.899 21.27 146.327 27.9187 143.115 35.2434L103.059 126.592Z" fill="#B81C1C"/>
<circle cx="193.359" cy="43.4413" r="8.49472" transform="rotate(35.7052 193.359 43.4413)" fill="#F14080"/>
<path d="M193.927 38.4156V38.4156C196.784 39.4632 198.251 42.6288 197.204 45.4861L196.634 47.0396" stroke="#FFFBFB" stroke-width="3"/>
<path d="M189.767 47.7393V47.7393C188.68 46.305 188.016 44.5951 187.851 42.8031L187.728 41.4641" stroke="#FFFBFB" stroke-width="2"/>
<ellipse cx="173.949" cy="36.2969" rx="6.28622" ry="1.28337" transform="rotate(18.2972 173.949 36.2969)" fill="#F14080"/>
<ellipse cx="213.546" cy="50.3012" rx="6.5522" ry="1.30492" transform="rotate(18.2972 213.546 50.3012)" fill="#F14080"/>
<path d="M136.592 59.8789L148.815 31.6286C151.476 25.4787 156.311 20.526 162.395 17.7184V17.7184" stroke="#FFFBFB" stroke-width="2"/>
<path d="M119.257 98.5189L110.783 117.605" stroke="#FFFBFB" stroke-width="3"/>
<path d="M109.659 123.458L108.943 125.661" stroke="#FFFBFB" stroke-width="3"/>
<path d="M136.586 75.1012C143.525 56.7429 165.202 48.8986 182.282 58.5655L183.795 59.4218L190.038 60.8128C209.894 65.2364 220.637 86.8219 212.193 105.33L203.207 125.026L190.925 160.206C189.837 163.325 186.432 164.977 183.309 163.902L118.109 141.471C114.909 140.37 113.252 136.841 114.448 133.676L136.586 75.1012Z" fill="#F38CAB"/>
<path d="M193.814 160.638L191.311 165.644C190.677 166.912 189.24 167.563 187.868 167.204L183.311 166.011" stroke="#FFFBFB" stroke-width="2"/>
<path d="M146.425 62.3916C146.463 62.2283 146.653 61.9883 146.945 61.7002C150.399 58.2945 155.315 56.9032 160.092 56.061L163.246 55.5047" stroke="#FFFBFB" stroke-width="3"/>
<path d="M145.182 63.2224L144.466 65.4258" stroke="#FFFBFB" stroke-width="3"/>
<path d="M147.015 73.4634C149.507 67.2594 156.576 64.3159 162.735 66.9182L182.149 75.1222C182.425 75.2389 182.714 75.3241 183.009 75.3763L194.124 77.3406C203.967 79.08 209.857 89.3548 206.394 98.7456L185.764 154.692C185.386 155.717 184.258 156.245 183.23 155.878L124.565 134.965C123.492 134.582 122.95 133.379 123.375 132.321L147.015 73.4634Z" fill="#F14080" stroke="#B81C1C" stroke-width="2"/>
<path d="M128.926 134.905L122.255 132.23L125.804 123.379L135.236 99.8602C135.565 99.0409 136.271 98.4324 137.13 98.2284L137.684 98.0968C141.81 97.1173 146.148 98.3398 149.155 101.329C150.751 102.915 153.467 101.758 153.429 99.5083L153.222 87.3598C153.161 83.7747 156.773 81.2862 160.101 82.6208C163.666 84.0505 167.715 82.3196 169.144 78.7547L172.483 70.4296L177.883 72.5953L174.392 87.7423C173.733 90.5977 171.328 92.7156 168.412 93.0067C163.936 93.4536 160.54 97.2397 160.58 101.738L160.636 108.132C160.639 108.396 160.589 108.657 160.491 108.902L158.473 113.934C157.726 115.796 155.373 116.379 153.844 115.079L149.317 111.233C147.645 109.813 145.425 109.216 143.266 109.604C140.454 110.111 138.1 112.03 137.036 114.682L134.057 122.111L131.61 128.213L128.926 134.905Z" fill="#B81C1C"/>
<path d="M197.988 114.719L190.911 132.364L191.241 122.52C191.324 120.057 190.694 117.676 189.471 115.832L185.389 109.674C184.844 108.852 184.744 107.677 185.134 106.679L185.384 106.039C186.308 103.674 187.821 101.748 189.676 100.576L191.053 99.705C192.126 99.0272 192.018 97.0448 190.888 96.6707L188.336 95.8254C186.045 95.0666 185.448 91.3103 187.298 89.2855C188.972 87.4525 189.305 84.3345 188.063 82.134L183.956 74.8608L189.105 76.6476L193.644 80.7254C194.908 81.8608 195.229 84.0872 194.379 85.82C193.02 88.5923 194.054 92.156 196.459 92.9885L197.825 93.4611C197.943 93.502 198.048 93.5867 198.126 93.7047L198.506 94.2781C199.561 95.8698 199.167 98.3554 197.691 99.4115L194.179 101.924C193.412 102.473 192.778 103.288 192.354 104.271L191.984 105.13C191.186 106.977 191.34 109.217 192.37 110.772C193.371 112.281 194.688 113.395 196.177 113.992L197.988 114.719Z" fill="#B81C1C"/>
<path d="M149.541 142.905L143.292 140.138L135.28 136.589L143.046 136.001L146.938 135.706C149.426 135.518 151.737 134.37 153.396 132.501C154.097 131.711 154.665 130.81 155.079 129.833L158.608 121.503C159.327 119.805 160.727 118.502 162.46 117.917C165.769 116.801 169.386 118.553 170.633 121.877L170.854 122.466C171.236 123.487 171.387 124.579 171.294 125.661L170.856 130.767C170.663 133.019 172.67 134.849 174.861 134.418C177.208 133.956 179.286 136.074 178.812 138.445L177.604 144.489C177.272 146.147 177.509 147.877 178.276 149.393L181.093 154.962L168.252 150.148L169.755 146.4L170.533 144.564C171.444 142.415 169.548 140.1 167.286 140.601C165.608 140.972 163.976 139.755 163.823 138.018L163.682 136.422C163.62 135.721 163.73 135.016 164.003 134.372L166.466 128.559C166.705 127.994 166.787 127.371 166.702 126.759C166.365 124.33 163.677 123.024 161.619 124.29L161.508 124.358C160.906 124.728 160.433 125.279 160.156 125.935L156.899 133.623C155.843 136.115 154.296 138.358 152.352 140.218L149.541 142.905Z" fill="#B81C1C" stroke="#B81C1C"/>
<path d="M169.185 101.044L166.59 104.078C163.922 106.596 161.356 110.549 163.049 114.179C163.161 114.418 163.289 114.633 163.436 114.816C164.942 116.69 168.122 113.815 169.007 111.019C170.014 107.837 174.42 107.975 174.229 111.39C174.213 111.669 174.227 111.958 174.264 112.251C174.637 115.207 177.996 115.42 179.753 113.321C180.322 112.642 180.699 111.781 180.84 110.842L181.493 106.494C181.695 105.144 182.427 103.998 183.483 103.378L183.946 103.106C185.185 102.378 185.836 100.799 185.557 99.1971C185.14 96.8078 182.89 95.3973 180.972 96.3231L176.058 98.6952C175.729 98.854 175.34 98.5793 175.282 98.1675C174.89 95.3655 172.339 93.556 170.075 94.5676C169.971 94.614 169.869 94.6597 169.767 94.7045C168.875 95.0997 168.418 96.2385 168.752 97.2974L169.457 99.5305C169.626 100.066 169.521 100.651 169.185 101.044Z" fill="#B81C1C" stroke="#B81C1C"/>
<ellipse cx="158.823" cy="180.591" rx="1.93062" ry="4.24736" transform="rotate(16.5 158.823 180.591)" fill="#F14080"/>
<ellipse cx="119.438" cy="166.691" rx="1.93062" ry="4.24736" transform="rotate(16.5 119.438 166.691)" fill="#F14080"/>
<path d="M187.614 216.082L183.926 202.929C183.083 199.919 185.345 196.935 188.472 196.935C189.519 196.935 190.536 196.586 191.364 195.945L200.194 189.099L198.852 196.031C197.888 201.011 195.754 205.691 192.626 209.684L187.614 216.082Z" fill="#B81C1C"/>
<path d="M73.2281 368.123C73.025 368.733 62.0207 367.224 47.7421 362.468C33.4635 357.712 21.3176 351.51 21.5207 350.901C21.7238 350.291 33.4635 353.652 47.7421 358.408C62.0207 363.164 73.4312 367.513 73.2281 368.123Z" fill="#B81C1C"/>
<path d="M85.7195 370.191V370.191C92.5885 367.647 98.8265 363.648 104.006 358.468L104.64 357.835" stroke="#F38CAB" stroke-width="2"/>
<path d="M108.844 352.613L150.632 273.862" stroke="#F38CAB" stroke-width="2"/>
<path d="M169.122 243.928L176.458 231.572" stroke="#F38CAB" stroke-width="2"/>
<path d="M159.577 261.154L164.767 252.187" stroke="#B81C1C" stroke-width="3"/>
<path d="M203.306 82.3324L204.738 84.1692C207.13 87.2363 207.724 91.3382 206.301 94.9577L186.384 145.613C184.243 151.058 177.418 152.839 172.889 149.134V149.134" stroke="#F38CAB"/>
<rect x="93.1968" y="235.539" width="17.9203" height="17.1159" rx="8" transform="rotate(26.4584 93.1968 235.539)" fill="#F38CAB"/>
<rect x="91.0286" y="234.46" width="17.9203" height="17.1159" rx="8" transform="rotate(26.4584 91.0286 234.46)" fill="#F14080"/>
<path d="M89.5808 239.866V239.866C90.8078 238.179 93.1904 237.848 94.8307 239.137L95.7588 239.866" stroke="white" stroke-width="2"/>
<path d="M89.4059 251.84L89.9604 250.631L93.9836 249.313C94.3304 249.191 94.6277 249.074 94.8757 248.963C95.1263 248.853 95.335 248.728 95.502 248.589C95.6702 248.447 95.8022 248.272 95.8982 248.063C96.0048 247.831 96.0437 247.606 96.0149 247.39C95.9872 247.171 95.9025 246.974 95.7606 246.799C95.62 246.622 95.4334 246.481 95.2011 246.374C94.9584 246.262 94.7241 246.214 94.4984 246.23C94.2726 246.245 94.0686 246.321 93.8863 246.46C93.7041 246.598 93.5549 246.794 93.4388 247.047L91.847 246.316C92.0851 245.797 92.4094 245.401 92.8197 245.126C93.2301 244.852 93.6949 244.707 94.2144 244.693C94.7338 244.678 95.2698 244.797 95.8223 245.051C96.3904 245.311 96.8386 245.639 97.1671 246.034C97.4993 246.427 97.7017 246.854 97.7743 247.316C97.8469 247.777 97.7784 248.236 97.5687 248.694C97.4312 248.993 97.2361 249.261 96.9835 249.499C96.7334 249.737 96.3768 249.966 95.9138 250.185C95.452 250.401 94.8349 250.632 94.0626 250.878L92.3838 251.481L92.3589 251.535L95.6897 253.064L95.0605 254.435L89.4059 251.84Z" fill="#B81C1C"/>
<path d="M89.4059 251.84L88.497 251.423L88.0799 252.332L88.9888 252.749L89.4059 251.84ZM89.9604 250.631L89.649 249.681L89.2338 249.817L89.0516 250.214L89.9604 250.631ZM93.9836 249.313L94.295 250.263L94.3055 250.26L94.3159 250.256L93.9836 249.313ZM94.8757 248.963L94.4735 248.047L94.4664 248.05L94.8757 248.963ZM95.502 248.589L96.142 249.357L96.1462 249.354L95.502 248.589ZM96.0149 247.39L95.0228 247.515L95.0237 247.522L96.0149 247.39ZM95.7606 246.799L94.9776 247.421L94.9847 247.43L95.7606 246.799ZM93.8863 246.46L94.4908 247.256L94.4908 247.256L93.8863 246.46ZM93.4388 247.047L93.0217 247.956L93.9306 248.373L94.3477 247.464L93.4388 247.047ZM91.847 246.316L90.9381 245.899L90.521 246.808L91.4299 247.225L91.847 246.316ZM92.8197 245.126L93.3755 245.958L92.8197 245.126ZM94.2144 244.693L94.1858 243.693L94.1858 243.693L94.2144 244.693ZM97.1671 246.034L96.3985 246.673L96.4032 246.679L97.1671 246.034ZM97.7743 247.316L96.7865 247.471L96.7865 247.471L97.7743 247.316ZM96.9835 249.499L96.2989 248.77L96.2934 248.775L96.9835 249.499ZM95.9138 250.185L96.3379 251.09L96.3412 251.089L95.9138 250.185ZM94.0626 250.878L93.7594 249.925L93.7418 249.93L93.7244 249.937L94.0626 250.878ZM92.3838 251.481L92.0456 250.54L91.6502 250.682L91.4749 251.064L92.3838 251.481ZM92.3589 251.535L91.45 251.118L91.0329 252.027L91.9418 252.444L92.3589 251.535ZM95.6897 253.064L96.5985 253.481L97.0156 252.572L96.1068 252.155L95.6897 253.064ZM95.0605 254.435L94.6434 255.344L95.5523 255.761L95.9694 254.852L95.0605 254.435ZM90.3148 252.257L90.8693 251.049L89.0516 250.214L88.497 251.423L90.3148 252.257ZM90.2719 251.582L94.295 250.263L93.6721 248.363L89.649 249.681L90.2719 251.582ZM94.3159 250.256C94.6803 250.128 95.0048 250.001 95.285 249.875L94.4664 248.05C94.2506 248.147 93.9804 248.254 93.6513 248.37L94.3159 250.256ZM95.2779 249.878C95.5931 249.74 95.8872 249.57 96.142 249.357L94.862 247.821C94.7829 247.887 94.6595 247.966 94.4735 248.047L95.2779 249.878ZM96.1462 249.354C96.4324 249.113 96.6525 248.817 96.8071 248.48L94.9893 247.646C94.9519 247.727 94.9079 247.782 94.8578 247.824L96.1462 249.354ZM96.8071 248.48C96.9788 248.106 97.0639 247.691 97.0061 247.258L95.0237 247.522C95.0241 247.525 95.0249 247.533 95.022 247.549C95.019 247.567 95.011 247.599 94.9893 247.646L96.8071 248.48ZM97.007 247.264C96.9555 246.856 96.794 246.485 96.5366 246.169L94.9847 247.43C95.011 247.463 95.019 247.485 95.0228 247.515L97.007 247.264ZM96.5437 246.177C96.2931 245.862 95.9745 245.629 95.6182 245.465L94.784 247.283C94.8923 247.332 94.9468 247.383 94.9776 247.421L96.5437 246.177ZM95.6182 245.465C95.2513 245.297 94.8509 245.204 94.4313 245.232L94.5654 247.227C94.5973 247.225 94.6654 247.228 94.784 247.283L95.6182 245.465ZM94.4313 245.232C94.0083 245.26 93.6179 245.408 93.2818 245.663L94.4908 247.256C94.5193 247.235 94.5369 247.229 94.5654 247.227L94.4313 245.232ZM93.2818 245.663C92.9429 245.92 92.7 246.259 92.5299 246.63L94.3477 247.464C94.4099 247.328 94.4653 247.276 94.4908 247.256L93.2818 245.663ZM93.8559 246.138L92.2641 245.407L91.4299 247.225L93.0217 247.956L93.8559 246.138ZM92.7558 246.733C92.9292 246.356 93.1417 246.114 93.3755 245.958L92.264 244.295C91.6771 244.687 91.2411 245.239 90.9381 245.899L92.7558 246.733ZM93.3755 245.958C93.621 245.794 93.9011 245.702 94.2429 245.692L94.1858 243.693C93.4887 243.713 92.8392 243.91 92.264 244.295L93.3755 245.958ZM94.2429 245.692C94.5847 245.682 94.9686 245.759 95.4052 245.96L96.2394 244.142C95.5709 243.835 94.8829 243.673 94.1858 243.693L94.2429 245.692ZM95.4052 245.96C95.8665 246.171 96.1842 246.416 96.3985 246.673L97.9356 245.394C97.4931 244.862 96.9142 244.452 96.2394 244.142L95.4052 245.96ZM96.4032 246.679C96.6297 246.947 96.7451 247.208 96.7865 247.471L98.7622 247.16C98.6582 246.5 98.3688 245.906 97.9309 245.388L96.4032 246.679ZM96.7865 247.471C96.8261 247.723 96.794 247.984 96.6598 248.276L98.4775 249.111C98.7628 248.489 98.8677 247.831 98.7622 247.16L96.7865 247.471ZM96.6598 248.276C96.579 248.452 96.4623 248.616 96.2989 248.77L97.668 250.228C98.01 249.907 98.2834 249.534 98.4775 249.111L96.6598 248.276ZM96.2934 248.775C96.1484 248.913 95.8948 249.088 95.4865 249.281L96.3412 251.089C96.8589 250.844 97.3184 250.561 97.6735 250.222L96.2934 248.775ZM95.4897 249.279C95.083 249.47 94.5114 249.685 93.7594 249.925L94.3658 251.831C95.1584 251.578 95.821 251.332 96.3379 251.09L95.4897 249.279ZM93.7244 249.937L92.0456 250.54L92.722 252.422L94.4008 251.819L93.7244 249.937ZM91.4749 251.064L91.45 251.118L93.2678 251.952L93.2926 251.898L91.4749 251.064ZM91.9418 252.444L95.2726 253.973L96.1068 252.155L92.776 250.626L91.9418 252.444ZM94.7808 252.647L94.1516 254.018L95.9694 254.852L96.5985 253.481L94.7808 252.647ZM95.4776 253.526L89.823 250.931L88.9888 252.749L94.6434 255.344L95.4776 253.526Z" fill="#B81C1C"/>
<rect x="121.942" y="248.088" width="18.6775" height="17.1159" rx="8" transform="rotate(26.4584 121.942 248.088)" fill="#F38CAB"/>
<rect x="119.682" y="246.964" width="18.6775" height="17.1159" rx="8" transform="rotate(26.4584 119.682 246.964)" fill="#F14080"/>
<path d="M118.234 251.597V251.597C119.461 249.91 121.844 249.579 123.484 250.868L124.412 251.597" stroke="white" stroke-width="2"/>
<path d="M121.633 265.65C121.055 265.384 120.585 265.048 120.225 264.642C119.868 264.235 119.64 263.795 119.54 263.325C119.444 262.852 119.498 262.383 119.703 261.918L121.391 262.693C121.313 262.891 121.298 263.09 121.347 263.291C121.399 263.49 121.505 263.675 121.664 263.845C121.824 264.015 122.026 264.156 122.272 264.269C122.527 264.386 122.774 264.445 123.012 264.444C123.249 264.444 123.46 264.389 123.645 264.28C123.829 264.171 123.97 264.012 124.066 263.803C124.163 263.591 124.189 263.376 124.145 263.159C124.105 262.941 123.996 262.735 123.819 262.541C123.645 262.348 123.408 262.183 123.109 262.046L122.369 261.707L122.934 260.475L123.674 260.814C123.927 260.931 124.171 260.989 124.404 260.99C124.641 260.992 124.849 260.941 125.029 260.836C125.209 260.728 125.348 260.57 125.444 260.361C125.535 260.162 125.567 259.966 125.54 259.772C125.517 259.577 125.44 259.398 125.309 259.234C125.18 259.072 125.003 258.939 124.779 258.836C124.551 258.732 124.325 258.678 124.098 258.674C123.873 258.668 123.669 258.713 123.487 258.811C123.305 258.908 123.163 259.056 123.063 259.254L121.456 258.516C121.673 258.063 121.989 257.72 122.402 257.488C122.815 257.255 123.28 257.139 123.799 257.14C124.321 257.139 124.854 257.263 125.396 257.511C125.943 257.763 126.377 258.082 126.696 258.469C127.015 258.856 127.211 259.271 127.283 259.714C127.359 260.155 127.299 260.584 127.105 261.001C126.904 261.446 126.595 261.753 126.18 261.922C125.768 262.093 125.321 262.116 124.84 261.992L124.812 262.054C125.361 262.397 125.712 262.803 125.865 263.273C126.022 263.742 125.986 264.223 125.757 264.715C125.552 265.168 125.237 265.509 124.813 265.74C124.391 265.971 123.904 266.082 123.352 266.073C122.8 266.063 122.227 265.922 121.633 265.65Z" fill="#B81C1C"/>
<path d="M120.225 264.642L119.472 265.301L119.477 265.306L120.225 264.642ZM119.54 263.325L118.56 263.524L118.562 263.532L119.54 263.325ZM119.703 261.918L120.12 261.009L119.196 260.585L118.787 261.516L119.703 261.918ZM121.391 262.693L122.321 263.061L122.67 262.179L121.808 261.784L121.391 262.693ZM121.347 263.291L120.375 263.527L120.377 263.536L120.38 263.546L121.347 263.291ZM121.664 263.845L120.935 264.529L120.935 264.529L121.664 263.845ZM123.012 264.444L123.01 263.444L123.012 264.444ZM123.645 264.28L124.154 265.141L124.154 265.141L123.645 264.28ZM124.145 263.159L123.162 263.341L123.163 263.35L123.165 263.358L124.145 263.159ZM123.819 262.541L123.078 263.212L123.081 263.215L123.819 262.541ZM122.369 261.707L121.46 261.289L121.043 262.198L121.952 262.615L122.369 261.707ZM122.934 260.475L123.351 259.566L122.442 259.149L122.025 260.058L122.934 260.475ZM124.404 260.99L124.414 259.99L124.409 259.99L124.404 260.99ZM125.029 260.836L125.534 261.699L125.541 261.695L125.029 260.836ZM125.54 259.772L124.547 259.889L124.548 259.899L124.55 259.909L125.54 259.772ZM125.309 259.234L124.525 259.856L124.529 259.861L125.309 259.234ZM124.098 258.674L124.07 259.674L124.081 259.674L124.098 258.674ZM123.487 258.811L123.959 259.692L123.959 259.692L123.487 258.811ZM123.063 259.254L122.646 260.163L123.521 260.564L123.955 259.706L123.063 259.254ZM121.456 258.516L120.554 258.084L120.114 259.001L121.039 259.425L121.456 258.516ZM122.402 257.488L122.892 258.359L122.892 258.359L122.402 257.488ZM123.799 257.14L123.798 258.14L123.801 258.14L123.799 257.14ZM126.696 258.469L127.468 257.833L126.696 258.469ZM127.283 259.714L126.296 259.874L126.297 259.883L127.283 259.714ZM127.105 261.001L126.199 260.578L126.194 260.589L127.105 261.001ZM126.18 261.922L125.803 260.996L125.799 260.998L126.18 261.922ZM124.84 261.992L125.09 261.024L124.28 260.815L123.931 261.575L124.84 261.992ZM124.812 262.054L123.903 261.637L123.536 262.437L124.282 262.902L124.812 262.054ZM125.865 263.273L124.914 263.583L124.917 263.59L125.865 263.273ZM125.757 264.715L124.85 264.293L124.846 264.303L125.757 264.715ZM124.813 265.74L124.336 264.861L124.332 264.863L124.813 265.74ZM123.352 266.073L123.369 265.073L123.352 266.073ZM122.05 264.741C121.577 264.523 121.227 264.265 120.973 263.978L119.477 265.306C119.944 265.832 120.533 266.245 121.216 266.558L122.05 264.741ZM120.977 263.983C120.719 263.688 120.578 263.401 120.518 263.118L118.562 263.532C118.701 264.19 119.017 264.781 119.472 265.301L120.977 263.983ZM120.52 263.126C120.468 262.867 120.492 262.607 120.618 262.319L118.787 261.516C118.505 262.159 118.421 262.838 118.56 263.524L120.52 263.126ZM119.286 262.827L120.974 263.601L121.808 261.784L120.12 261.009L119.286 262.827ZM120.462 262.325C120.31 262.708 120.276 263.118 120.375 263.527L122.318 263.055C122.318 263.054 122.318 263.054 122.318 263.057C122.319 263.059 122.319 263.063 122.318 263.066C122.318 263.069 122.318 263.071 122.318 263.07C122.318 263.07 122.319 263.067 122.321 263.061L120.462 262.325ZM120.38 263.546C120.48 263.926 120.677 264.254 120.935 264.529L122.394 263.161C122.333 263.096 122.318 263.055 122.314 263.036L120.38 263.546ZM120.935 264.529C121.196 264.807 121.51 265.019 121.855 265.178L122.689 263.36C122.543 263.293 122.452 263.223 122.394 263.161L120.935 264.529ZM121.855 265.178C122.218 265.344 122.607 265.445 123.013 265.444L123.01 263.444C122.941 263.444 122.837 263.428 122.689 263.36L121.855 265.178ZM123.013 265.444C123.409 265.444 123.799 265.35 124.154 265.141L123.136 263.419C123.121 263.428 123.089 263.444 123.01 263.444L123.013 265.444ZM124.154 265.141C124.527 264.92 124.8 264.6 124.974 264.22L123.157 263.386C123.146 263.409 123.139 263.417 123.138 263.418C123.138 263.418 123.138 263.418 123.138 263.418C123.138 263.418 123.138 263.418 123.136 263.419L124.154 265.141ZM124.974 264.22C125.155 263.826 125.214 263.396 125.125 262.96L123.165 263.358C123.166 263.362 123.166 263.363 123.166 263.362C123.166 263.362 123.166 263.361 123.166 263.36C123.166 263.36 123.166 263.361 123.165 263.365C123.164 263.368 123.161 263.375 123.157 263.386L124.974 264.22ZM125.129 262.978C125.049 262.544 124.838 262.173 124.558 261.867L123.081 263.215C123.155 263.296 123.161 263.337 123.162 263.341L125.129 262.978ZM124.561 261.87C124.275 261.554 123.917 261.316 123.526 261.137L122.692 262.955C122.9 263.05 123.016 263.143 123.078 263.212L124.561 261.87ZM123.526 261.137L122.786 260.798L121.952 262.615L122.692 262.955L123.526 261.137ZM123.278 262.124L123.843 260.892L122.025 260.058L121.46 261.289L123.278 262.124ZM122.517 261.384L123.257 261.723L124.091 259.906L123.351 259.566L122.517 261.384ZM123.257 261.723C123.615 261.888 123.999 261.988 124.4 261.99L124.409 259.99C124.342 259.99 124.239 259.973 124.091 259.906L123.257 261.723ZM124.395 261.99C124.787 261.994 125.178 261.907 125.534 261.699L124.523 259.973C124.52 259.975 124.495 259.991 124.414 259.99L124.395 261.99ZM125.541 261.695C125.912 261.474 126.18 261.153 126.352 260.778L124.535 259.943C124.523 259.969 124.515 259.978 124.515 259.978C124.514 259.979 124.515 259.979 124.516 259.978C124.517 259.977 124.517 259.977 124.516 259.977L125.541 261.695ZM126.352 260.778C126.513 260.427 126.587 260.039 126.531 259.635L124.55 259.909C124.549 259.908 124.549 259.906 124.549 259.904C124.549 259.902 124.55 259.901 124.549 259.902C124.549 259.904 124.547 259.917 124.535 259.943L126.352 260.778ZM126.533 259.655C126.487 259.26 126.329 258.907 126.088 258.608L124.529 259.861C124.543 259.877 124.546 259.886 124.547 259.887C124.547 259.888 124.547 259.888 124.547 259.887C124.547 259.887 124.547 259.888 124.547 259.889L126.533 259.655ZM126.092 258.613C125.848 258.306 125.536 258.084 125.196 257.927L124.362 259.745C124.471 259.795 124.512 259.839 124.525 259.856L126.092 258.613ZM125.196 257.927C124.856 257.772 124.494 257.681 124.115 257.674L124.081 259.674C124.156 259.675 124.247 259.693 124.362 259.745L125.196 257.927ZM124.127 257.675C123.743 257.664 123.365 257.742 123.015 257.929L123.959 259.692C123.974 259.684 124.003 259.672 124.07 259.674L124.127 257.675ZM123.015 257.929C122.638 258.131 122.357 258.435 122.171 258.802L123.955 259.706C123.96 259.696 123.964 259.69 123.966 259.688C123.968 259.685 123.968 259.685 123.967 259.686C123.966 259.687 123.964 259.689 123.962 259.69C123.96 259.692 123.959 259.693 123.959 259.692L123.015 257.929ZM123.48 258.345L121.873 257.608L121.039 259.425L122.646 260.163L123.48 258.345ZM122.358 258.949C122.492 258.669 122.669 258.485 122.892 258.359L121.911 256.616C121.308 256.956 120.855 257.457 120.554 258.084L122.358 258.949ZM122.892 258.359C123.141 258.219 123.435 258.139 123.798 258.14L123.8 256.14C123.126 256.139 122.488 256.291 121.911 256.616L122.892 258.359ZM123.801 258.14C124.16 258.139 124.549 258.223 124.979 258.42L125.813 256.603C125.158 256.302 124.483 256.138 123.797 256.14L123.801 258.14ZM124.979 258.42C125.416 258.621 125.719 258.856 125.925 259.105L127.468 257.833C127.035 257.308 126.471 256.904 125.813 256.603L124.979 258.42ZM125.925 259.105C126.145 259.373 126.256 259.627 126.296 259.874L128.27 259.553C128.166 258.916 127.886 258.34 127.468 257.833L125.925 259.105ZM126.297 259.883C126.338 260.117 126.31 260.34 126.199 260.578L128.011 261.424C128.289 260.828 128.38 260.192 128.269 259.544L126.297 259.883ZM126.194 260.589C126.088 260.824 125.959 260.933 125.803 260.996L126.557 262.849C127.232 262.574 127.72 262.069 128.016 261.413L126.194 260.589ZM125.799 260.998C125.609 261.076 125.386 261.1 125.09 261.024L124.591 262.96C125.256 263.132 125.927 263.109 126.562 262.847L125.799 260.998ZM123.931 261.575L123.903 261.637L125.721 262.471L125.749 262.409L123.931 261.575ZM124.282 262.902C124.695 263.159 124.854 263.397 124.914 263.583L126.816 262.964C126.57 262.209 126.027 261.634 125.341 261.206L124.282 262.902ZM124.917 263.59C124.984 263.792 124.983 264.008 124.85 264.293L126.664 265.137C126.989 264.437 127.06 263.692 126.813 262.956L124.917 263.59ZM124.846 264.303C124.728 264.563 124.563 264.738 124.336 264.861L125.29 266.619C125.912 266.281 126.376 265.772 126.668 265.127L124.846 264.303ZM124.332 264.863C124.084 264.999 123.773 265.08 123.369 265.073L123.335 267.073C124.035 267.085 124.698 266.943 125.294 266.616L124.332 264.863ZM123.369 265.073C122.978 265.066 122.541 264.966 122.05 264.741L121.216 266.558C121.913 266.878 122.622 267.06 123.335 267.073L123.369 265.073Z" fill="#B81C1C"/>
<rect x="51.6943" y="244.133" width="19.566" height="17.1159" rx="8" transform="rotate(26.4584 51.6943 244.133)" fill="#F38CAB"/>
<rect x="49.3274" y="242.955" width="19.566" height="17.1159" rx="8" transform="rotate(26.4584 49.3274 242.955)" fill="#F14080"/>
<path d="M48.2119 250.619L48.5271 250.169C49.8204 248.322 52.1899 247.569 54.312 248.331L56.5776 249.144" stroke="white" stroke-width="2"/>
<path d="M48.9965 258.885L49.6026 257.564L55.3081 253.867L56.4468 254.39L55.6079 256.218L54.934 255.908L51.3303 258.254L51.3019 258.316L56.0076 260.476L55.3908 261.82L48.9965 258.885ZM52.1638 262.027L52.9885 260.229L53.2879 259.659L55.8348 254.109L57.4073 254.83L53.7672 262.762L52.1638 262.027Z" fill="#B81C1C"/>
<path d="M48.9965 258.885L48.0876 258.468L47.6705 259.377L48.5794 259.794L48.9965 258.885ZM49.6026 257.564L49.0588 256.725L48.8149 256.883L48.6937 257.147L49.6026 257.564ZM55.3081 253.867L55.7252 252.958L55.2256 252.729L54.7643 253.028L55.3081 253.867ZM56.4468 254.39L57.3556 254.807L57.7727 253.898L56.8639 253.481L56.4468 254.39ZM55.6079 256.218L55.1908 257.127L56.0996 257.544L56.5167 256.635L55.6079 256.218ZM54.934 255.908L55.3511 255L54.8502 254.77L54.3884 255.07L54.934 255.908ZM51.3303 258.254L50.7848 257.416L50.5422 257.574L50.4214 257.837L51.3303 258.254ZM51.3019 258.316L50.393 257.899L49.9759 258.808L50.8848 259.225L51.3019 258.316ZM56.0076 260.476L56.9164 260.893L57.3335 259.984L56.4247 259.567L56.0076 260.476ZM55.3908 261.82L54.9737 262.728L55.8826 263.146L56.2997 262.237L55.3908 261.82ZM52.1638 262.027L51.2549 261.609L50.8378 262.518L51.7467 262.935L52.1638 262.027ZM52.9885 260.229L52.103 259.765L52.0907 259.788L52.0796 259.812L52.9885 260.229ZM53.2879 259.659L54.1734 260.123L54.1857 260.1L54.1967 260.076L53.2879 259.659ZM55.8348 254.109L56.2519 253.2L55.3431 252.783L54.926 253.692L55.8348 254.109ZM57.4073 254.83L58.3162 255.248L58.7332 254.339L57.8244 253.922L57.4073 254.83ZM53.7672 262.762L53.3501 263.671L54.259 264.088L54.6761 263.179L53.7672 262.762ZM49.9054 259.302L50.5114 257.981L48.6937 257.147L48.0876 258.468L49.9054 259.302ZM50.1464 258.404L55.8519 254.706L54.7643 253.028L49.0588 256.725L50.1464 258.404ZM54.891 254.776L56.0297 255.299L56.8639 253.481L55.7252 252.958L54.891 254.776ZM55.5379 253.973L54.699 255.801L56.5167 256.635L57.3556 254.807L55.5379 253.973ZM56.025 255.309L55.3511 255L54.5169 256.817L55.1908 257.127L56.025 255.309ZM54.3884 255.07L50.7848 257.416L51.8758 259.092L55.4795 256.747L54.3884 255.07ZM50.4214 257.837L50.393 257.899L52.2107 258.733L52.2392 258.671L50.4214 257.837ZM50.8848 259.225L55.5905 261.384L56.4247 259.567L51.719 257.407L50.8848 259.225ZM55.0987 260.059L54.482 261.402L56.2997 262.237L56.9164 260.893L55.0987 260.059ZM55.8079 260.911L49.4136 257.976L48.5794 259.794L54.9737 262.728L55.8079 260.911ZM53.0727 262.444L53.8974 260.647L52.0796 259.812L51.2549 261.609L53.0727 262.444ZM53.874 260.694L54.1734 260.123L52.4023 259.194L52.103 259.765L53.874 260.694ZM54.1967 260.076L56.7437 254.526L54.926 253.692L52.379 259.242L54.1967 260.076ZM55.4178 255.018L56.9902 255.739L57.8244 253.922L56.2519 253.2L55.4178 255.018ZM56.4984 254.413L52.8584 262.345L54.6761 263.179L58.3162 255.248L56.4984 254.413ZM54.1843 261.854L52.5809 261.118L51.7467 262.935L53.3501 263.671L54.1843 261.854Z" fill="#B81C1C"/>
<rect x="81.812" y="254.945" width="19.566" height="17.1159" rx="8" transform="rotate(26.4584 81.812 254.945)" fill="#F38CAB"/>
<rect x="79.4448" y="253.767" width="19.566" height="17.1159" rx="8" transform="rotate(26.4584 79.4448 253.767)" fill="#F14080"/>
<path d="M77.9968 259.945V259.945C79.4227 258.202 81.9503 257.852 83.7963 259.141L84.9471 259.945" stroke="white" stroke-width="2"/>
<path d="M81.4414 274.901C80.894 274.649 80.4522 274.325 80.116 273.927C79.7824 273.53 79.5715 273.097 79.4834 272.628C79.3953 272.16 79.4509 271.694 79.6503 271.233L81.277 271.979C81.1541 272.295 81.1688 272.603 81.3213 272.904C81.4737 273.206 81.7152 273.432 82.0457 273.584C82.309 273.705 82.5681 273.753 82.8228 273.729C83.0813 273.704 83.3153 273.613 83.5249 273.456C83.7383 273.298 83.9077 273.082 84.0333 272.808C84.1613 272.529 84.2145 272.257 84.1929 271.99C84.1739 271.725 84.0883 271.486 83.9363 271.272C83.7842 271.059 83.5758 270.89 83.311 270.765C83.0787 270.659 82.8308 270.603 82.5675 270.597C82.3068 270.593 82.0778 270.646 81.8806 270.756L80.5122 269.804L82.8074 265.794L87.6564 268.019L87.0272 269.39L83.5609 267.799L82.4438 269.692L82.4903 269.713C82.7198 269.581 83.0049 269.515 83.3455 269.515C83.6862 269.515 84.0308 269.595 84.3794 269.755C84.8571 269.974 85.2316 270.282 85.5029 270.679C85.7742 271.075 85.9282 271.519 85.965 272.011C86.003 272.501 85.9039 272.999 85.6679 273.507C85.4252 274.042 85.0833 274.46 84.6421 274.761C84.2046 275.061 83.708 275.227 83.1523 275.259C82.6004 275.29 82.0301 275.171 81.4414 274.901Z" fill="#B81C1C"/>
<path d="M80.116 273.927L79.3505 274.57L79.352 274.572L80.116 273.927ZM79.4834 272.628L80.4662 272.443L80.4662 272.443L79.4834 272.628ZM79.6503 271.233L80.0674 270.324L79.1378 269.897L78.7323 270.836L79.6503 271.233ZM81.277 271.979L82.2088 272.342L82.5511 271.464L81.6941 271.07L81.277 271.979ZM81.3213 272.904L82.2135 272.453L82.2135 272.453L81.3213 272.904ZM82.8228 273.729L82.9157 274.725L82.9197 274.725L82.8228 273.729ZM83.5249 273.456L82.9288 272.653L82.9254 272.656L83.5249 273.456ZM84.1929 271.99L83.1954 272.062L83.1962 272.071L84.1929 271.99ZM83.9363 271.272L83.1216 271.852L83.1216 271.852L83.9363 271.272ZM83.311 270.765L83.737 269.86L83.7281 269.856L83.311 270.765ZM82.5675 270.597L82.5872 269.598L82.5828 269.598L82.5675 270.597ZM81.8806 270.756L81.3097 271.577L81.8215 271.933L82.3663 271.63L81.8806 270.756ZM80.5122 269.804L79.6442 269.308L79.1893 270.102L79.9413 270.625L80.5122 269.804ZM82.8074 265.794L83.2245 264.885L82.3936 264.504L81.9395 265.297L82.8074 265.794ZM87.6564 268.019L88.5653 268.436L88.9824 267.527L88.0735 267.11L87.6564 268.019ZM87.0272 269.39L86.6101 270.299L87.519 270.716L87.9361 269.807L87.0272 269.39ZM83.5609 267.799L83.978 266.89L83.1582 266.514L82.6997 267.291L83.5609 267.799ZM82.4438 269.692L81.5826 269.184L81.0191 270.138L82.0267 270.601L82.4438 269.692ZM82.4903 269.713L82.0732 270.622L82.5423 270.838L82.9896 270.58L82.4903 269.713ZM83.3455 269.515L83.3454 270.515L83.3454 270.515L83.3455 269.515ZM85.5029 270.679L86.3281 270.114L86.3281 270.114L85.5029 270.679ZM85.965 272.011L84.9678 272.086L84.968 272.089L85.965 272.011ZM85.6679 273.507L84.7612 273.085L84.7571 273.094L85.6679 273.507ZM84.6421 274.761L84.0788 273.935L84.0773 273.936L84.6421 274.761ZM83.1523 275.259L83.2087 276.257L83.2108 276.257L83.1523 275.259ZM81.8585 273.992C81.4239 273.792 81.1076 273.551 80.88 273.281L79.352 274.572C79.7968 275.098 80.364 275.506 81.0243 275.809L81.8585 273.992ZM80.8815 273.283C80.6486 273.006 80.5198 272.729 80.4662 272.443L78.5006 272.813C78.6233 273.465 78.9162 274.053 79.3505 274.57L80.8815 273.283ZM80.4662 272.443C80.417 272.182 80.4435 271.918 80.5684 271.629L78.7323 270.836C78.4584 271.47 78.3736 272.138 78.5006 272.813L80.4662 272.443ZM79.2333 272.141L80.8599 272.888L81.6941 271.07L80.0674 270.324L79.2333 272.141ZM80.3452 271.616C80.1195 272.196 80.1478 272.8 80.429 273.356L82.2135 272.453C82.1949 272.416 82.1948 272.4 82.1947 272.399C82.1947 272.398 82.1933 272.382 82.2088 272.342L80.3452 271.616ZM80.429 273.356C80.6917 273.875 81.1095 274.254 81.6286 274.493L82.4628 272.675C82.3209 272.61 82.2558 272.536 82.2135 272.453L80.429 273.356ZM81.6286 274.493C82.0298 274.677 82.4641 274.767 82.9157 274.725L82.7299 272.734C82.672 272.739 82.5882 272.732 82.4628 272.675L81.6286 274.493ZM82.9197 274.725C83.362 274.682 83.7696 274.522 84.1245 274.256L82.9254 272.656C82.861 272.704 82.8006 272.727 82.7259 272.734L82.9197 274.725ZM84.121 274.259C84.4866 273.988 84.7559 273.631 84.9422 273.225L83.1245 272.391C83.0595 272.532 82.99 272.608 82.9288 272.653L84.121 274.259ZM84.9422 273.225C85.1309 272.814 85.227 272.37 85.1896 271.909L83.1962 272.071C83.202 272.143 83.1917 272.244 83.1245 272.391L84.9422 273.225ZM85.1903 271.919C85.1583 271.473 85.0109 271.058 84.7509 270.692L83.1216 271.852C83.1658 271.914 83.1894 271.977 83.1955 272.062L85.1903 271.919ZM84.7509 270.692C84.4881 270.323 84.1386 270.049 83.7369 269.86L82.8851 271.67C83.013 271.73 83.0803 271.794 83.1216 271.852L84.7509 270.692ZM83.7281 269.856C83.3671 269.691 82.9836 269.605 82.5872 269.598L82.5478 271.597C82.678 271.6 82.7902 271.626 82.8939 271.674L83.7281 269.856ZM82.5828 269.598C82.1746 269.591 81.7677 269.675 81.395 269.882L82.3663 271.63C82.3879 271.618 82.4389 271.596 82.5522 271.597L82.5828 269.598ZM82.4515 269.935L81.083 268.983L79.9413 270.625L81.3097 271.577L82.4515 269.935ZM81.3801 270.301L83.6753 266.291L81.9395 265.297L79.6442 269.308L81.3801 270.301ZM82.3903 266.703L87.2393 268.928L88.0735 267.11L83.2245 264.885L82.3903 266.703ZM86.7475 267.602L86.1183 268.973L87.9361 269.807L88.5653 268.436L86.7475 267.602ZM87.4443 268.481L83.978 266.89L83.1438 268.708L86.6101 270.299L87.4443 268.481ZM82.6997 267.291L81.5826 269.184L83.305 270.2L84.4221 268.308L82.6997 267.291ZM82.0267 270.601L82.0732 270.622L82.9074 268.804L82.8609 268.783L82.0267 270.601ZM82.9896 270.58C83.0296 270.557 83.1309 270.515 83.3454 270.515L83.3457 268.515C82.8788 268.515 82.4099 268.605 81.991 268.847L82.9896 270.58ZM83.3454 270.515C83.525 270.515 83.7281 270.556 83.9623 270.664L84.7965 268.846C84.3336 268.634 83.8474 268.515 83.3457 268.515L83.3454 270.515ZM83.9623 270.664C84.2913 270.815 84.5182 271.01 84.6776 271.243L86.3281 270.114C85.945 269.554 85.4229 269.134 84.7965 268.846L83.9623 270.664ZM84.6776 271.243C84.8466 271.49 84.9438 271.765 84.9678 272.086L86.9622 271.937C86.9127 271.274 86.7017 270.66 86.3281 270.114L84.6776 271.243ZM84.968 272.089C84.9909 272.384 84.935 272.711 84.7612 273.085L86.5747 273.928C86.8729 273.287 87.015 272.617 86.962 271.934L84.968 272.089ZM84.7571 273.094C84.5822 273.48 84.3533 273.748 84.0788 273.935L85.2053 275.587C85.8133 275.173 86.2683 274.605 86.5788 273.919L84.7571 273.094ZM84.0773 273.936C83.7974 274.127 83.4777 274.238 83.0938 274.261L83.2108 276.257C83.9384 276.215 84.6118 275.994 85.2068 275.586L84.0773 273.936ZM83.096 274.261C82.7326 274.281 82.3245 274.206 81.8585 273.992L81.0243 275.809C81.7357 276.136 82.4681 276.299 83.2087 276.257L83.096 274.261Z" fill="#B81C1C"/>
<rect x="109.303" y="269.617" width="19.566" height="17.1159" rx="8" transform="rotate(26.4584 109.303 269.617)" fill="#F38CAB"/>
<rect x="106.164" y="266.895" width="19.566" height="17.1159" rx="8" transform="rotate(26.4584 106.164 266.895)" fill="#F14080"/>
<path d="M104.253 273.073V273.073C105.679 271.33 108.207 270.98 110.053 272.269L111.204 273.073" stroke="white" stroke-width="2"/>
<path d="M109.39 287.324C108.983 287.134 108.62 286.885 108.303 286.577C107.987 286.27 107.749 285.896 107.588 285.457C107.427 285.017 107.373 284.508 107.427 283.929C107.482 283.351 107.677 282.7 108.009 281.974C108.318 281.309 108.667 280.749 109.057 280.293C109.451 279.837 109.873 279.489 110.323 279.252C110.775 279.016 111.243 278.893 111.726 278.883C112.209 278.871 112.697 278.977 113.187 279.202C113.717 279.445 114.137 279.763 114.447 280.155C114.759 280.545 114.957 280.972 115.041 281.436C115.128 281.901 115.097 282.363 114.948 282.823L113.294 282.064C113.357 281.759 113.321 281.479 113.186 281.227C113.052 280.975 112.833 280.779 112.528 280.639C112.011 280.402 111.516 280.446 111.041 280.773C110.569 281.1 110.153 281.648 109.794 282.418L109.848 282.443C110.075 282.262 110.327 282.136 110.604 282.063C110.885 281.989 111.175 281.967 111.473 281.998C111.775 282.027 112.071 282.108 112.36 282.241C112.83 282.456 113.197 282.759 113.462 283.149C113.728 283.537 113.879 283.972 113.914 284.454C113.949 284.936 113.853 285.425 113.625 285.92C113.379 286.457 113.034 286.878 112.592 287.181C112.152 287.485 111.654 287.654 111.099 287.687C110.547 287.718 109.977 287.597 109.39 287.324ZM109.986 286.004C110.244 286.122 110.504 286.166 110.765 286.136C111.026 286.106 111.263 286.011 111.476 285.853C111.689 285.695 111.856 285.484 111.977 285.22C112.098 284.957 112.149 284.694 112.128 284.432C112.111 284.17 112.03 283.931 111.885 283.715C111.741 283.499 111.539 283.331 111.281 283.213C111.087 283.124 110.891 283.078 110.693 283.074C110.497 283.072 110.308 283.107 110.124 283.179C109.944 283.252 109.78 283.358 109.632 283.497C109.485 283.633 109.368 283.796 109.28 283.987C109.163 284.243 109.114 284.503 109.133 284.768C109.154 285.034 109.237 285.277 109.38 285.496C109.526 285.716 109.728 285.885 109.986 286.004Z" fill="#B81C1C"/>
<path d="M109.39 287.324L109.178 287.777L109.179 287.778L109.39 287.324ZM108.303 286.577L107.954 286.935L107.954 286.936L108.303 286.577ZM107.588 285.457L107.119 285.628L107.588 285.457ZM107.427 283.929L106.929 283.881L106.929 283.883L107.427 283.929ZM108.009 281.974L107.556 281.764L107.555 281.766L108.009 281.974ZM109.057 280.293L108.679 279.967L108.678 279.968L109.057 280.293ZM110.323 279.252L110.091 278.809L110.09 278.81L110.323 279.252ZM111.726 278.883L111.736 279.383L111.738 279.383L111.726 278.883ZM114.447 280.155L114.055 280.466L114.057 280.468L114.447 280.155ZM115.041 281.436L114.549 281.525L114.549 281.528L115.041 281.436ZM114.948 282.823L114.74 283.278L115.251 283.512L115.424 282.977L114.948 282.823ZM113.294 282.064L112.804 281.965L112.725 282.353L113.086 282.519L113.294 282.064ZM111.041 280.773L110.758 280.36L110.756 280.362L111.041 280.773ZM109.794 282.418L109.341 282.206L109.128 282.662L109.585 282.872L109.794 282.418ZM109.848 282.443L109.64 282.897L109.919 283.025L110.16 282.834L109.848 282.443ZM110.604 282.063L110.731 282.546L110.731 282.546L110.604 282.063ZM111.473 281.998L111.422 282.495L111.425 282.495L111.473 281.998ZM113.462 283.149L113.048 283.43L113.05 283.432L113.462 283.149ZM112.592 287.181L112.309 286.769L112.307 286.77L112.592 287.181ZM111.099 287.687L111.127 288.186L111.128 288.186L111.099 287.687ZM110.765 286.136L110.822 286.633L110.822 286.633L110.765 286.136ZM111.476 285.853L111.774 286.254L111.774 286.254L111.476 285.853ZM112.128 284.432L111.629 284.465L111.63 284.47L112.128 284.432ZM111.885 283.715L112.301 283.437L112.301 283.437L111.885 283.715ZM110.693 283.074L110.702 282.574L110.699 282.574L110.693 283.074ZM110.124 283.179L109.941 282.714L109.936 282.716L110.124 283.179ZM109.632 283.497L109.971 283.864L109.973 283.862L109.632 283.497ZM109.133 284.768L108.634 284.804L108.634 284.809L109.133 284.768ZM109.38 285.496L108.962 285.77L108.963 285.772L109.38 285.496ZM109.601 286.871C109.244 286.705 108.928 286.487 108.651 286.218L107.954 286.936C108.313 287.283 108.722 287.564 109.178 287.777L109.601 286.871ZM108.651 286.219C108.393 285.967 108.194 285.659 108.058 285.285L107.119 285.628C107.304 286.134 107.581 286.572 107.954 286.935L108.651 286.219ZM108.058 285.285C107.928 284.929 107.876 284.497 107.924 283.975L106.929 283.883C106.87 284.518 106.927 285.105 107.119 285.628L108.058 285.285ZM107.924 283.977C107.973 283.471 108.146 282.875 108.464 282.183L107.555 281.766C107.207 282.524 106.991 283.231 106.929 283.881L107.924 283.977ZM108.463 282.184C108.756 281.552 109.082 281.033 109.437 280.619L108.678 279.968C108.252 280.465 107.879 281.066 107.556 281.764L108.463 282.184ZM109.436 280.62C109.797 280.202 110.171 279.898 110.557 279.694L110.09 278.81C109.575 279.081 109.106 279.471 108.679 279.967L109.436 280.62ZM110.555 279.695C110.942 279.493 111.334 279.391 111.736 279.383L111.715 278.383C111.151 278.394 110.608 278.539 110.091 278.809L110.555 279.695ZM111.738 279.383C112.138 279.373 112.549 279.459 112.979 279.656L113.396 278.748C112.844 278.494 112.281 278.369 111.713 278.383L111.738 279.383ZM112.979 279.656C113.448 279.872 113.801 280.144 114.055 280.466L114.839 279.845C114.472 279.381 113.985 279.018 113.396 278.748L112.979 279.656ZM114.057 280.468C114.32 280.797 114.481 281.148 114.549 281.525L115.533 281.347C115.433 280.796 115.198 280.294 114.838 279.843L114.057 280.468ZM114.549 281.528C114.621 281.909 114.596 282.287 114.472 282.67L115.424 282.977C115.598 282.44 115.635 281.893 115.532 281.344L114.549 281.528ZM115.157 282.369L113.503 281.61L113.086 282.519L114.74 283.278L115.157 282.369ZM113.784 282.164C113.867 281.756 113.822 281.357 113.628 280.992L112.745 281.462C112.819 281.602 112.846 281.761 112.804 281.965L113.784 282.164ZM113.628 280.992C113.433 280.627 113.123 280.362 112.736 280.185L112.319 281.093C112.542 281.196 112.671 281.322 112.745 281.462L113.628 280.992ZM112.736 280.185C112.057 279.873 111.375 279.936 110.758 280.36L111.324 281.185C111.656 280.957 111.965 280.931 112.319 281.093L112.736 280.185ZM110.756 280.362C110.185 280.758 109.721 281.392 109.341 282.206L110.247 282.629C110.586 281.904 110.953 281.442 111.326 281.183L110.756 280.362ZM109.585 282.872L109.64 282.897L110.057 281.988L110.002 281.963L109.585 282.872ZM110.16 282.834C110.332 282.696 110.522 282.601 110.731 282.546L110.477 281.579C110.132 281.67 109.817 281.828 109.537 282.052L110.16 282.834ZM110.731 282.546C110.952 282.488 111.181 282.47 111.422 282.495L111.524 281.5C111.168 281.463 110.817 281.489 110.476 281.579L110.731 282.546ZM111.425 282.495C111.669 282.519 111.911 282.584 112.152 282.695L112.569 281.786C112.231 281.631 111.882 281.535 111.521 281.5L111.425 282.495ZM112.152 282.695C112.547 282.876 112.84 283.123 113.048 283.43L113.876 282.869C113.555 282.396 113.113 282.036 112.569 281.786L112.152 282.695ZM113.05 283.432C113.264 283.745 113.386 284.094 113.415 284.49L114.413 284.418C114.371 283.85 114.192 283.33 113.875 282.867L113.05 283.432ZM113.415 284.49C113.443 284.878 113.368 285.283 113.171 285.712L114.08 286.129C114.338 285.567 114.455 284.994 114.413 284.418L113.415 284.49ZM113.171 285.712C112.958 286.175 112.67 286.521 112.309 286.769L112.875 287.593C113.399 287.234 113.8 286.74 114.08 286.129L113.171 285.712ZM112.307 286.77C111.946 287.02 111.537 287.16 111.07 287.187L111.128 288.186C111.771 288.148 112.358 287.951 112.877 287.592L112.307 286.77ZM111.071 287.187C110.614 287.213 110.126 287.115 109.6 286.871L109.179 287.778C109.828 288.079 110.48 288.222 111.127 288.186L111.071 287.187ZM109.778 286.458C110.112 286.612 110.463 286.674 110.822 286.633L110.707 285.639C110.544 285.658 110.377 285.633 110.195 285.549L109.778 286.458ZM110.822 286.633C111.171 286.592 111.491 286.464 111.774 286.254L111.178 285.452C111.034 285.558 110.88 285.619 110.707 285.639L110.822 286.633ZM111.774 286.254C112.061 286.041 112.279 285.762 112.432 285.429L111.523 285.012C111.434 285.206 111.318 285.348 111.178 285.452L111.774 286.254ZM112.432 285.429C112.584 285.096 112.654 284.749 112.627 284.393L111.63 284.47C111.643 284.639 111.612 284.818 111.523 285.012L112.432 285.429ZM112.627 284.398C112.604 284.05 112.494 283.727 112.301 283.437L111.469 283.993C111.565 284.136 111.618 284.291 111.629 284.465L112.627 284.398ZM112.301 283.437C112.1 283.137 111.824 282.912 111.49 282.758L111.072 283.667C111.255 283.751 111.381 283.86 111.469 283.993L112.301 283.437ZM111.49 282.758C111.238 282.643 110.974 282.579 110.702 282.574L110.684 283.574C110.808 283.576 110.937 283.605 111.072 283.667L111.49 282.758ZM110.699 282.574C110.438 282.571 110.184 282.618 109.941 282.714L110.308 283.644C110.431 283.596 110.556 283.573 110.687 283.574L110.699 282.574ZM109.936 282.716C109.697 282.813 109.481 282.953 109.29 283.132L109.973 283.862C110.078 283.764 110.191 283.692 110.313 283.642L109.936 282.716ZM109.292 283.13C109.094 283.313 108.939 283.531 108.826 283.779L109.734 284.196C109.796 284.061 109.875 283.953 109.971 283.864L109.292 283.13ZM108.826 283.779C108.675 284.106 108.608 284.45 108.634 284.804L109.631 284.732C109.619 284.556 109.65 284.379 109.734 284.196L108.826 283.779ZM108.634 284.809C108.662 285.156 108.772 285.479 108.962 285.77L109.798 285.222C109.702 285.074 109.646 284.912 109.631 284.728L108.634 284.809ZM108.963 285.772C109.164 286.076 109.441 286.304 109.778 286.458L110.195 285.549C110.014 285.467 109.887 285.356 109.797 285.22L108.963 285.772Z" fill="#B81C1C"/>
<rect x="40.1108" y="263.439" width="19.566" height="17.1159" rx="8" transform="rotate(26.4584 40.1108 263.439)" fill="#F38CAB"/>
<rect x="37.7437" y="262.261" width="19.566" height="17.1159" rx="8" transform="rotate(26.4584 37.7437 262.261)" fill="#F14080"/>
<path d="M37.0679 269.598L37.8443 269.015C39.275 267.942 41.17 267.715 42.8139 268.42L45.5626 269.598" stroke="white" stroke-width="2"/>
<path d="M37.2067 280.557L43.4808 275.559L43.5057 275.505L39.6753 273.747L40.3045 272.376L45.87 274.93L45.2319 276.321L38.9379 281.351L37.2067 280.557Z" fill="#B81C1C"/>
<path d="M37.2067 280.557L36.5836 279.775L35.312 280.788L36.7896 281.466L37.2067 280.557ZM43.4808 275.559L44.1039 276.341L44.2903 276.193L44.3897 275.976L43.4808 275.559ZM43.5057 275.505L44.4146 275.922L44.8317 275.013L43.9228 274.596L43.5057 275.505ZM39.6753 273.747L38.7665 273.33L38.3494 274.239L39.2582 274.656L39.6753 273.747ZM40.3045 272.376L40.7216 271.467L39.8127 271.05L39.3957 271.959L40.3045 272.376ZM45.87 274.93L46.7789 275.347L47.196 274.438L46.2871 274.021L45.87 274.93ZM45.2319 276.321L45.8563 277.102L46.0418 276.953L46.1408 276.738L45.2319 276.321ZM38.9379 281.351L38.5208 282.26L39.0809 282.517L39.5623 282.132L38.9379 281.351ZM37.8297 281.339L44.1039 276.341L42.8578 274.777L36.5836 279.775L37.8297 281.339ZM44.3897 275.976L44.4146 275.922L42.5969 275.088L42.572 275.142L44.3897 275.976ZM43.9228 274.596L40.0924 272.838L39.2582 274.656L43.0886 276.414L43.9228 274.596ZM40.5842 274.164L41.2134 272.793L39.3957 271.959L38.7665 273.33L40.5842 274.164ZM39.8874 273.285L45.4529 275.839L46.2871 274.021L40.7216 271.467L39.8874 273.285ZM44.9612 274.513L44.3231 275.903L46.1408 276.738L46.7789 275.347L44.9612 274.513ZM44.6076 275.539L38.3136 280.57L39.5623 282.132L45.8563 277.102L44.6076 275.539ZM39.355 280.442L37.6238 279.648L36.7896 281.466L38.5208 282.26L39.355 280.442Z" fill="#B81C1C"/>
<rect x="67.9116" y="277.665" width="19.566" height="17.1159" rx="8" transform="rotate(26.4584 67.9116 277.665)" fill="#F38CAB"/>
<rect x="65.5447" y="276.487" width="19.566" height="17.1159" rx="8" transform="rotate(26.4584 65.5447 276.487)" fill="#F14080"/>
<rect x="57.8726" y="296.199" width="19.566" height="17.1159" rx="8" transform="rotate(26.4584 57.8726 296.199)" fill="#F38CAB"/>
<rect x="55.5054" y="295.021" width="19.566" height="17.1159" rx="8" transform="rotate(26.4584 55.5054 295.021)" fill="#F14080"/>
<path d="M58.4569 312.904C57.792 312.596 57.294 312.169 56.9631 311.623C56.6347 311.079 56.483 310.439 56.508 309.703C56.5356 308.969 56.7497 308.168 57.1504 307.302C57.5474 306.437 58.0135 305.758 58.5487 305.266C59.0866 304.775 59.6672 304.481 60.2906 304.382C60.9178 304.283 61.5632 304.385 62.2267 304.69C62.8903 304.994 63.3875 305.416 63.7182 305.955C64.0515 306.496 64.2075 307.13 64.186 307.858C64.1658 308.583 63.9559 309.378 63.5564 310.242C63.1571 311.112 62.6867 311.796 62.1453 312.295C61.6065 312.795 61.0236 313.098 60.3966 313.204C59.7697 313.31 59.1231 313.21 58.4569 312.904ZM59.095 311.514C59.5494 311.722 60.0171 311.66 60.4979 311.328C60.9788 310.995 61.4276 310.371 61.8445 309.456C62.1206 308.854 62.2885 308.325 62.3482 307.868C62.4105 307.412 62.3756 307.032 62.2434 306.727C62.1137 306.424 61.8979 306.203 61.5958 306.065C61.1439 305.857 60.6788 305.917 60.2003 306.245C59.7218 306.572 59.2745 307.186 58.8584 308.086C58.5788 308.695 58.406 309.232 58.3402 309.695C58.2781 310.157 58.3125 310.542 58.4436 310.849C58.5758 311.154 58.7929 311.375 59.095 311.514Z" fill="#B81C1C"/>
<path d="M58.4569 312.904L58.0363 313.812L58.0398 313.813L58.4569 312.904ZM56.9631 311.623L56.1067 312.14L56.108 312.142L56.9631 311.623ZM56.508 309.703L55.5087 309.666L55.5086 309.669L56.508 309.703ZM57.1504 307.302L58.058 307.722L58.0593 307.719L57.1504 307.302ZM58.5487 305.266L57.8746 304.528L57.872 304.53L58.5487 305.266ZM60.2906 304.382L60.4465 305.37L60.4477 305.37L60.2906 304.382ZM63.7182 305.955L62.8657 306.478L62.867 306.48L63.7182 305.955ZM64.186 307.858L63.1865 307.829L63.1864 307.83L64.186 307.858ZM63.5564 310.242L62.6488 309.822L62.6475 309.825L63.5564 310.242ZM62.1453 312.295L61.4679 311.559L61.4652 311.562L62.1453 312.295ZM60.3966 313.204L60.5635 314.19L60.5635 314.19L60.3966 313.204ZM60.4979 311.328L61.0668 312.15L60.4979 311.328ZM61.8445 309.456L60.9356 309.039L60.9345 309.042L61.8445 309.456ZM62.3482 307.868L61.3574 307.733L61.3566 307.738L62.3482 307.868ZM62.2434 306.727L61.3238 307.12L61.3261 307.126L62.2434 306.727ZM60.2003 306.245L59.6355 305.419L59.6355 305.419L60.2003 306.245ZM58.8584 308.086L57.9507 307.666L57.9496 307.669L58.8584 308.086ZM58.3402 309.695L57.3501 309.555L57.3491 309.562L58.3402 309.695ZM58.4436 310.849L57.5238 311.242L57.5263 311.247L58.4436 310.849ZM58.8775 311.997C58.3653 311.76 58.0314 311.456 57.8181 311.105L56.108 312.142C56.5566 312.882 57.2187 313.432 58.0363 313.812L58.8775 311.997ZM57.8194 311.107C57.6059 310.753 57.4879 310.31 57.5074 309.737L55.5086 309.669C55.4781 310.567 55.6634 311.405 56.1067 312.14L57.8194 311.107ZM57.5073 309.741C57.5287 309.171 57.697 308.502 58.058 307.722L56.2428 306.882C55.8024 307.834 55.5425 308.766 55.5087 309.666L57.5073 309.741ZM58.0593 307.719C58.4171 306.939 58.8132 306.382 59.2255 306.003L57.872 304.53C57.2138 305.135 56.6776 305.935 56.2416 306.885L58.0593 307.719ZM59.2228 306.005C59.6389 305.625 60.0449 305.434 60.4465 305.37L60.1347 303.395C59.2895 303.528 58.5343 303.926 57.8746 304.528L59.2228 306.005ZM60.4477 305.37C60.8519 305.306 61.2979 305.364 61.8097 305.598L62.6438 303.781C61.8284 303.407 60.9836 303.26 60.1335 303.395L60.4477 305.37ZM61.8097 305.598C62.3215 305.833 62.6539 306.133 62.8657 306.478L64.5707 305.433C64.1211 304.699 63.4591 304.155 62.6438 303.781L61.8097 305.598ZM62.867 306.48C63.0834 306.831 63.203 307.267 63.1865 307.829L65.1856 307.888C65.2119 306.994 65.0197 306.161 64.5694 305.431L62.867 306.48ZM63.1864 307.83C63.1709 308.385 63.0083 309.045 62.6488 309.822L64.464 310.661C64.9035 309.711 65.1606 308.782 65.1857 307.886L63.1864 307.83ZM62.6475 309.825C62.2876 310.609 61.8872 311.173 61.4679 311.559L62.8227 313.03C63.4862 312.419 64.0265 311.615 64.4652 310.659L62.6475 309.825ZM61.4652 311.562C61.0464 311.95 60.6362 312.149 60.2297 312.218L60.5635 314.19C61.411 314.046 62.1666 313.639 62.8254 313.028L61.4652 311.562ZM60.2297 312.218C59.8297 312.285 59.3864 312.231 58.874 311.995L58.0398 313.813C58.8598 314.189 59.7096 314.334 60.5635 314.19L60.2297 312.218ZM58.6779 312.423C59.5127 312.806 60.3538 312.643 61.0668 312.15L59.9291 310.505C59.6803 310.677 59.5862 310.639 59.5121 310.605L58.6779 312.423ZM61.0668 312.15C61.768 311.665 62.3101 310.846 62.7545 309.871L60.9345 309.042C60.5451 309.896 60.1896 310.325 59.9291 310.505L61.0668 312.15ZM62.7534 309.873C63.0547 309.217 63.2628 308.587 63.3398 307.998L61.3566 307.738C61.3142 308.063 61.1865 308.492 60.9356 309.039L62.7534 309.873ZM63.339 308.003C63.4169 307.433 63.3886 306.854 63.1606 306.329L61.3261 307.126C61.3625 307.21 61.4041 307.391 61.3574 307.733L63.339 308.003ZM63.1629 306.334C62.9348 305.801 62.5388 305.397 62.0129 305.156L61.1787 306.973C61.257 307.009 61.2926 307.047 61.3238 307.12L63.1629 306.334ZM62.0129 305.156C61.1837 304.775 60.3469 304.933 59.6355 305.419L60.7651 307.07C61.0106 306.902 61.1042 306.939 61.1787 306.973L62.0129 305.156ZM59.6355 305.419C58.9369 305.897 58.3953 306.705 57.9508 307.666L59.7661 308.505C60.1538 307.667 60.5068 307.247 60.7651 307.07L59.6355 305.419ZM57.9496 307.669C57.6455 308.331 57.434 308.964 57.3501 309.555L59.3302 309.836C59.378 309.499 59.5121 309.059 59.7673 308.503L57.9496 307.669ZM57.3491 309.562C57.2721 310.135 57.2995 310.716 57.5238 311.242L59.3633 310.457C59.3256 310.368 59.2841 310.18 59.3313 309.828L57.3491 309.562ZM57.5263 311.247C57.7568 311.778 58.1522 312.181 58.6779 312.423L59.5121 310.605C59.4336 310.569 59.3948 310.529 59.3608 310.451L57.5263 311.247Z" fill="#B81C1C"/>
<path d="M64.3193 283.665V283.665C65.3316 281.841 67.656 281.222 69.4412 282.302L70.4513 282.912" stroke="white" stroke-width="2"/>
<path d="M69.1476 295.78C68.5512 295.506 68.065 295.166 67.6891 294.759C67.317 294.35 67.0769 293.917 66.9687 293.458C66.8606 292.998 66.9049 292.555 67.1016 292.126C67.2532 291.796 67.4673 291.526 67.7439 291.319C68.0242 291.11 68.3368 290.974 68.6817 290.91C69.0278 290.844 69.3741 290.859 69.7205 290.955L69.7454 290.901C69.3611 290.622 69.1119 290.259 68.9978 289.813C68.8849 289.364 68.928 288.923 69.1271 288.489C69.3155 288.078 69.6032 287.768 69.9903 287.558C70.3785 287.345 70.8238 287.244 71.3262 287.252C71.8324 287.259 72.3527 287.386 72.8872 287.631C73.4217 287.876 73.8554 288.188 74.1884 288.566C74.5239 288.945 74.7377 289.351 74.8297 289.784C74.9229 290.214 74.8772 290.634 74.6926 291.043C74.4897 291.478 74.1807 291.797 73.7655 292.001C73.3502 292.204 72.9152 292.253 72.4604 292.147L72.4355 292.201C72.7294 292.399 72.9628 292.65 73.1357 292.954C73.3123 293.257 73.4128 293.583 73.4372 293.932C73.4653 294.279 73.4049 294.619 73.2558 294.95C73.0565 295.378 72.7476 295.7 72.329 295.917C71.9104 296.135 71.4237 296.235 70.8689 296.218C70.3178 296.2 69.7441 296.053 69.1476 295.78ZM69.7128 294.548C69.9788 294.67 70.2331 294.729 70.4757 294.725C70.7196 294.718 70.9361 294.655 71.1253 294.535C71.3183 294.414 71.4664 294.242 71.5695 294.017C71.6749 293.787 71.7099 293.558 71.6742 293.329C71.6398 293.097 71.5463 292.886 71.3937 292.694C71.2423 292.499 71.0375 292.343 70.7793 292.224C70.5236 292.107 70.2714 292.054 70.0226 292.065C69.775 292.073 69.5523 292.139 69.3543 292.264C69.1601 292.388 69.0103 292.564 68.9048 292.794C68.8018 293.019 68.766 293.243 68.7977 293.467C68.8305 293.688 68.9251 293.894 69.0815 294.085C69.239 294.273 69.4495 294.427 69.7128 294.548ZM71.3391 291.004C71.5612 291.106 71.7794 291.152 71.9939 291.141C72.2084 291.13 72.4014 291.067 72.573 290.952C72.7446 290.837 72.8783 290.674 72.9743 290.465C73.0691 290.259 73.103 290.056 73.076 289.856C73.0501 289.653 72.9722 289.469 72.842 289.303C72.7131 289.134 72.535 288.998 72.3078 288.894C72.0832 288.79 71.8636 288.744 71.6491 288.755C71.4359 288.764 71.244 288.824 71.0736 288.937C70.907 289.048 70.7763 289.207 70.6815 289.413C70.5855 289.622 70.5499 289.829 70.5745 290.035C70.5992 290.24 70.6772 290.427 70.8088 290.597C70.9403 290.767 71.1171 290.902 71.3391 291.004Z" fill="#B81C1C"/>
<path d="M67.6891 294.759L66.95 295.432L66.9546 295.437L67.6891 294.759ZM66.9687 293.458L65.9954 293.687L66.9687 293.458ZM67.7439 291.319L67.1462 290.517L67.1436 290.519L67.7439 291.319ZM68.6817 290.91L68.8632 291.893L68.8697 291.892L68.6817 290.91ZM69.7205 290.955L69.4523 291.919L70.2737 292.148L70.6294 291.373L69.7205 290.955ZM69.7454 290.901L70.6543 291.318L70.9958 290.574L70.3336 290.092L69.7454 290.901ZM68.9978 289.813L68.028 290.057L68.029 290.06L68.9978 289.813ZM69.9903 287.558L70.4671 288.437L70.4705 288.435L69.9903 287.558ZM71.3262 287.252L71.3091 288.252L71.3119 288.252L71.3262 287.252ZM74.1884 288.566L73.4381 289.227L73.4396 289.228L74.1884 288.566ZM74.8297 289.784L73.8516 289.991L73.8524 289.995L74.8297 289.784ZM74.6926 291.043L75.599 291.465L75.6041 291.454L74.6926 291.043ZM73.7655 292.001L73.3258 291.102L73.3258 291.102L73.7655 292.001ZM72.4604 292.147L72.6865 291.173L71.8918 290.989L71.5515 291.73L72.4604 292.147ZM72.4355 292.201L71.5266 291.784L71.1719 292.557L71.878 293.032L72.4355 292.201ZM73.1357 292.954L72.2661 293.448L72.2718 293.458L73.1357 292.954ZM73.4372 293.932L72.4396 294.001L72.4405 294.012L73.4372 293.932ZM73.2558 294.95L74.1622 295.373L74.1679 295.36L73.2558 294.95ZM72.329 295.917L71.8681 295.03L71.8681 295.03L72.329 295.917ZM70.8689 296.218L70.8354 297.217L70.8381 297.217L70.8689 296.218ZM70.4757 294.725L70.4934 295.725L70.5039 295.724L70.4757 294.725ZM71.1253 294.535L70.5946 293.688L70.5915 293.69L71.1253 294.535ZM71.6742 293.329L70.6851 293.476L70.6861 293.483L71.6742 293.329ZM71.3937 292.694L70.6045 293.308L70.6109 293.316L71.3937 292.694ZM70.0226 292.065L70.056 293.064L70.0662 293.064L70.0226 292.065ZM69.3543 292.264L68.8209 291.418L68.8178 291.42L69.3543 292.264ZM68.7977 293.467L67.8075 293.607L67.8085 293.614L68.7977 293.467ZM69.0815 294.085L68.3084 294.719L68.3151 294.727L69.0815 294.085ZM71.9939 291.141L71.9428 290.142L71.9428 290.142L71.9939 291.141ZM72.573 290.952L72.016 290.121L72.573 290.952ZM73.076 289.856L72.084 289.982L72.085 289.989L73.076 289.856ZM72.842 289.303L72.0477 289.91L72.055 289.92L72.842 289.303ZM71.6491 288.755L71.6885 289.755L71.7003 289.754L71.6491 288.755ZM71.0736 288.937L70.5227 288.102L70.519 288.105L71.0736 288.937ZM70.5745 290.035L69.5817 290.154L70.5745 290.035ZM70.8088 290.597L71.5993 289.984L71.5993 289.984L70.8088 290.597ZM69.5647 294.871C69.0665 294.642 68.6951 294.374 68.4237 294.08L66.9546 295.437C67.435 295.957 68.0359 296.37 68.7305 296.689L69.5647 294.871ZM68.4282 294.085C68.151 293.781 68.005 293.495 67.9421 293.228L65.9954 293.687C66.1487 294.338 66.483 294.92 66.95 295.432L68.4282 294.085ZM67.9421 293.228C67.885 292.986 67.9066 292.769 68.0104 292.543L66.1927 291.709C65.9032 292.34 65.8362 293.011 65.9954 293.687L67.9421 293.228ZM68.0104 292.543C68.0964 292.356 68.2077 292.221 68.3441 292.119L67.1436 290.519C66.727 290.832 66.4101 291.235 66.1927 291.709L68.0104 292.543ZM68.3415 292.121C68.4985 292.004 68.6686 291.929 68.8632 291.893L68.5002 289.927C68.005 290.018 67.5499 290.216 67.1462 290.517L68.3415 292.121ZM68.8697 291.892C69.0611 291.856 69.2512 291.863 69.4523 291.919L69.9888 289.992C69.4969 289.855 68.9945 289.832 68.4938 289.928L68.8697 291.892ZM70.6294 291.373L70.6543 291.318L68.8365 290.484L68.8117 290.538L70.6294 291.373ZM70.3336 290.092C70.1311 289.945 70.021 289.778 69.9666 289.565L68.029 290.06C68.2027 290.74 68.5911 291.298 69.1572 291.71L70.3336 290.092ZM69.9676 289.569C69.9121 289.348 69.9286 289.14 70.0359 288.906L68.2182 288.072C67.9274 288.705 67.8577 289.38 68.028 290.057L69.9676 289.569ZM70.0359 288.906C70.1366 288.687 70.2754 288.541 70.4671 288.437L69.5134 286.679C68.931 286.995 68.4944 287.47 68.2182 288.072L70.0359 288.906ZM70.4705 288.435C70.6867 288.317 70.9564 288.246 71.3091 288.252L71.3434 286.252C70.6913 286.241 70.0703 286.374 69.51 286.681L70.4705 288.435ZM71.3119 288.252C71.6583 288.257 72.0419 288.343 72.4701 288.54L73.3043 286.722C72.6636 286.428 72.0066 286.262 71.3405 286.252L71.3119 288.252ZM72.4701 288.54C72.8986 288.736 73.2119 288.97 73.4381 289.227L74.9387 287.904C74.499 287.406 73.9448 287.016 73.3043 286.722L72.4701 288.54ZM73.4396 289.228C73.6774 289.497 73.8004 289.75 73.8516 289.991L75.8079 289.576C75.6751 288.951 75.3705 288.392 74.9372 287.903L73.4396 289.228ZM73.8524 289.995C73.8993 290.212 73.8795 290.414 73.7811 290.632L75.6041 291.454C75.875 290.854 75.9466 290.216 75.8071 289.572L73.8524 289.995ZM73.7862 290.62C73.6759 290.857 73.5273 291.004 73.3258 291.102L74.2052 292.899C74.8342 292.591 75.3036 292.099 75.599 291.465L73.7862 290.62ZM73.3258 291.102C73.1193 291.203 72.9196 291.227 72.6865 291.173L72.2343 293.121C72.9107 293.278 73.5811 293.204 74.2052 292.899L73.3258 291.102ZM71.5515 291.73L71.5266 291.784L73.3444 292.618L73.3693 292.564L71.5515 291.73ZM71.878 293.032C72.0447 293.144 72.1707 293.28 72.2661 293.448L74.0052 292.46C73.7549 292.019 73.4141 291.654 72.9931 291.371L71.878 293.032ZM72.2718 293.458C72.3714 293.629 72.426 293.806 72.4396 294.001L74.4348 293.862C74.3997 293.36 74.2532 292.885 73.9996 292.45L72.2718 293.458ZM72.4405 294.012C72.4544 294.184 72.4267 294.355 72.3437 294.54L74.1679 295.36C74.383 294.882 74.4763 294.374 74.4339 293.851L72.4405 294.012ZM72.3494 294.528C72.2433 294.755 72.091 294.914 71.8681 295.03L72.7898 296.805C73.4041 296.486 73.8696 296 74.1621 295.373L72.3494 294.528ZM71.8681 295.03C71.6259 295.156 71.314 295.231 70.8996 295.218L70.8381 297.217C71.5334 297.239 72.1948 297.114 72.7898 296.805L71.8681 295.03ZM70.9023 295.219C70.5066 295.205 70.0631 295.1 69.5647 294.871L68.7305 296.689C69.4251 297.007 70.129 297.194 70.8354 297.217L70.9023 295.219ZM69.2957 295.457C69.6703 295.629 70.0732 295.732 70.4934 295.725L70.458 293.725C70.393 293.726 70.2872 293.711 70.1299 293.639L69.2957 295.457ZM70.5039 295.724C70.9104 295.713 71.3048 295.605 71.6592 295.381L70.5915 293.69C70.5675 293.705 70.5287 293.723 70.4475 293.725L70.5039 295.724ZM71.6561 295.383C72.0286 295.15 72.3011 294.82 72.4783 294.434L70.6606 293.6C70.6316 293.663 70.6081 293.679 70.5946 293.688L71.6561 295.383ZM72.4783 294.434C72.6578 294.043 72.7309 293.616 72.6623 293.175L70.6861 293.483C70.6888 293.5 70.692 293.531 70.6606 293.6L72.4783 294.434ZM72.6634 293.182C72.6018 292.768 72.4329 292.394 72.1764 292.071L70.6109 293.316C70.6596 293.377 70.6778 293.427 70.6851 293.476L72.6634 293.182ZM72.1828 292.08C71.9187 291.74 71.5781 291.491 71.1963 291.315L70.3622 293.133C70.4969 293.195 70.5658 293.258 70.6046 293.308L72.1828 292.08ZM71.1963 291.315C70.8153 291.141 70.4059 291.047 69.979 291.066L70.0662 293.064C70.137 293.061 70.2319 293.073 70.3622 293.133L71.1963 291.315ZM69.9892 291.065C69.5751 291.079 69.1778 291.193 68.8209 291.418L69.8877 293.11C69.9267 293.086 69.975 293.067 70.056 293.064L69.9892 291.065ZM68.8178 291.42C68.445 291.657 68.1736 291.99 67.996 292.377L69.8137 293.211C69.847 293.139 69.8752 293.118 69.8908 293.108L68.8178 291.42ZM67.996 292.377C67.8207 292.759 67.7466 293.176 67.8075 293.607L69.7878 293.327C69.7855 293.31 69.7828 293.279 69.8137 293.211L67.996 292.377ZM67.8085 293.614C67.8705 294.032 68.0492 294.403 68.3084 294.719L69.8545 293.45C69.801 293.385 69.7905 293.345 69.7869 293.32L67.8085 293.614ZM68.3151 294.727C68.5836 295.048 68.9219 295.285 69.2957 295.457L70.1299 293.639C69.9771 293.569 69.8944 293.498 69.8478 293.442L68.3151 294.727ZM70.922 291.913C71.2703 292.073 71.6486 292.16 72.045 292.139L71.9428 290.142C71.9103 290.144 71.8521 290.139 71.7562 290.095L70.922 291.913ZM72.045 292.139C72.4328 292.12 72.802 292.002 73.1299 291.782L72.016 290.121C72.0008 290.131 71.984 290.14 71.9428 290.142L72.045 292.139ZM73.1299 291.782C73.4717 291.553 73.7193 291.24 73.8832 290.882L72.0655 290.048C72.0374 290.109 72.0174 290.12 72.016 290.121L73.1299 291.782ZM73.8832 290.882C74.0467 290.526 74.1225 290.132 74.067 289.722L72.085 289.989C72.085 289.99 72.085 289.99 72.085 289.989C72.085 289.989 72.085 289.989 72.085 289.989C72.085 289.989 72.085 289.989 72.0849 289.99C72.0848 289.991 72.0847 289.992 72.0844 289.994C72.0835 289.999 72.0797 290.017 72.0655 290.048L73.8832 290.882ZM74.0679 289.729C74.0185 289.341 73.8666 288.989 73.629 288.686L72.055 289.92C72.0777 289.949 72.0818 289.965 72.084 289.982L74.0679 289.729ZM73.6363 288.695C73.3919 288.376 73.0742 288.145 72.7249 287.985L71.8907 289.802C71.9959 289.851 72.0343 289.893 72.0477 289.91L73.6363 288.695ZM72.7249 287.985C72.3759 287.825 71.9963 287.736 71.598 287.757L71.7003 289.754C71.7309 289.752 71.7904 289.756 71.8907 289.802L72.7249 287.985ZM71.6098 287.756C71.2228 287.771 70.8525 287.884 70.5227 288.102L71.6245 289.771C71.6355 289.764 71.6489 289.756 71.6885 289.755L71.6098 287.756ZM70.519 288.105C70.1781 288.332 69.9341 288.644 69.7726 288.996L71.5904 289.83C71.6055 289.797 71.6176 289.781 71.6228 289.775C71.6254 289.771 71.627 289.77 71.6275 289.769C71.628 289.769 71.6281 289.769 71.6283 289.769L70.519 288.105ZM69.7726 288.996C69.6087 289.353 69.5326 289.745 69.5817 290.154L71.5674 289.915C71.5672 289.914 71.5623 289.891 71.5904 289.83L69.7726 288.996ZM69.5817 290.154C69.6288 290.546 69.7805 290.902 70.0183 291.209L71.5993 289.984C71.574 289.952 71.5695 289.933 71.5674 289.915L69.5817 290.154ZM70.0183 291.209C70.2614 291.523 70.5738 291.753 70.922 291.913L71.7562 290.095C71.6604 290.051 71.6192 290.01 71.5993 289.984L70.0183 291.209Z" fill="#B81C1C"/>
<rect x="95.5547" y="290.468" width="19.566" height="17.1159" rx="8" transform="rotate(26.4584 95.5547 290.468)" fill="#F38CAB"/>
<rect x="94.7322" y="288.518" width="19.566" height="17.1159" rx="8" transform="rotate(26.4584 94.7322 288.518)" fill="#F14080"/>
<path d="M93.4419 294.696L94.2234 293.979C95.7766 292.556 98.0556 292.258 99.922 293.236L102.709 294.696" stroke="white" stroke-width="2"/>
<path d="M102.143 300.718C102.551 300.905 102.912 301.154 103.227 301.464C103.543 301.775 103.781 302.148 103.941 302.584C104.103 303.021 104.157 303.527 104.102 304.102C104.051 304.676 103.863 305.322 103.536 306.041C103.227 306.715 102.874 307.282 102.479 307.741C102.088 308.199 101.666 308.548 101.216 308.788C100.765 309.028 100.296 309.154 99.8095 309.165C99.3242 309.174 98.8363 309.065 98.3457 308.84C97.8164 308.597 97.3958 308.281 97.0841 307.891C96.7735 307.498 96.5754 307.068 96.4899 306.601C96.4081 306.132 96.4433 305.664 96.5955 305.196L98.2492 305.955C98.1811 306.274 98.2135 306.56 98.3466 306.815C98.4809 307.068 98.7004 307.264 99.0051 307.403C99.5215 307.64 100.017 307.596 100.492 307.27C100.968 306.941 101.387 306.385 101.75 305.601L101.696 305.576C101.47 305.754 101.218 305.881 100.94 305.956C100.663 306.029 100.373 306.051 100.071 306.022C99.7709 305.994 99.4752 305.913 99.1834 305.779C98.7161 305.564 98.3494 305.263 98.0835 304.875C97.8176 304.488 97.667 304.053 97.6319 303.571C97.5967 303.089 97.6923 302.602 97.9186 302.108C98.1601 301.575 98.5002 301.158 98.9388 300.856C99.3775 300.554 99.8727 300.387 100.425 300.356C100.98 300.324 101.553 300.444 102.143 300.718ZM101.551 302.04C101.29 301.921 101.029 301.876 100.768 301.906C100.51 301.938 100.273 302.031 100.059 302.186C99.8465 302.341 99.6825 302.549 99.5666 302.808C99.4469 303.069 99.3959 303.33 99.4135 303.591C99.4349 303.851 99.5166 304.089 99.6585 304.304C99.8042 304.518 100.006 304.684 100.264 304.802C100.458 304.891 100.654 304.938 100.852 304.941C101.051 304.945 101.24 304.911 101.419 304.84C101.602 304.768 101.767 304.664 101.914 304.528C102.061 304.392 102.177 304.23 102.264 304.042C102.376 303.79 102.422 303.533 102.402 303.27C102.382 303.008 102.299 302.767 102.153 302.547C102.007 302.326 101.806 302.158 101.551 302.04Z" fill="#B81C1C"/>
<path d="M102.143 300.718L101.722 301.625L101.726 301.627L102.143 300.718ZM103.227 301.464L102.524 302.176L102.526 302.177L103.227 301.464ZM103.941 302.584L103.002 302.928L103.003 302.932L103.941 302.584ZM104.102 304.102L103.107 304.008L103.106 304.014L104.102 304.102ZM103.536 306.041L104.445 306.458L104.446 306.455L103.536 306.041ZM102.479 307.741L101.721 307.089L101.719 307.091L102.479 307.741ZM101.216 308.788L101.686 309.671L101.686 309.671L101.216 308.788ZM99.8095 309.165L99.8272 310.165L99.8325 310.165L99.8095 309.165ZM97.0841 307.891L96.2998 308.511L96.303 308.515L97.0841 307.891ZM96.4899 306.601L95.5047 306.773L95.5062 306.781L96.4899 306.601ZM96.5955 305.196L97.0126 304.287L95.9919 303.819L95.6445 304.887L96.5955 305.196ZM98.2492 305.955L99.2271 306.164L99.3947 305.38L98.6663 305.046L98.2492 305.955ZM98.3466 306.815L97.4602 307.278L97.4639 307.285L98.3466 306.815ZM100.492 307.27L101.058 308.094L101.06 308.093L100.492 307.27ZM101.75 305.601L102.657 306.021L103.079 305.111L102.167 304.692L101.75 305.601ZM101.696 305.576L102.113 304.668L101.556 304.412L101.076 304.791L101.696 305.576ZM100.94 305.956L101.194 306.924L101.201 306.922L100.94 305.956ZM100.071 306.022L100.167 305.026L100.164 305.026L100.071 306.022ZM98.0835 304.875L97.2588 305.441L97.2588 305.441L98.0835 304.875ZM97.6319 303.571L96.6345 303.644L96.6345 303.644L97.6319 303.571ZM97.9186 302.108L98.8275 302.525L98.8295 302.521L97.9186 302.108ZM98.9388 300.856L99.5058 301.68L99.5058 301.68L98.9388 300.856ZM100.425 300.356L100.481 301.355L100.483 301.354L100.425 300.356ZM100.768 301.906L100.653 300.913L100.647 300.914L100.768 301.906ZM100.059 302.186L99.4743 301.374L99.4668 301.38L100.059 302.186ZM99.5666 302.808L100.475 303.225L100.48 303.216L99.5666 302.808ZM99.4135 303.591L98.4158 303.659L98.4163 303.666L98.4169 303.674L99.4135 303.591ZM99.6585 304.304L98.8238 304.855L98.8279 304.861L98.8322 304.867L99.6585 304.304ZM100.852 304.941L100.87 303.941L100.87 303.941L100.852 304.941ZM101.419 304.84L101.052 303.91L101.052 303.91L101.419 304.84ZM101.914 304.528L102.593 305.262L102.593 305.262L101.914 304.528ZM102.264 304.042L103.173 304.459L103.177 304.449L102.264 304.042ZM102.402 303.27L103.399 303.194L103.399 303.194L102.402 303.27ZM102.153 302.547L102.986 301.994L102.986 301.994L102.153 302.547ZM101.726 301.627C102.03 301.767 102.294 301.949 102.524 302.176L103.929 300.752C103.53 300.359 103.072 300.044 102.56 299.809L101.726 301.627ZM102.526 302.177C102.732 302.38 102.891 302.625 103.002 302.928L104.88 302.24C104.672 301.672 104.355 301.17 103.927 300.75L102.526 302.177ZM103.003 302.932C103.102 303.198 103.15 303.547 103.107 304.008L105.098 304.197C105.163 303.507 105.104 302.844 104.878 302.236L103.003 302.932ZM103.106 304.014C103.068 304.442 102.922 304.976 102.626 305.627L104.446 306.455C104.804 305.669 105.035 304.91 105.098 304.19L103.106 304.014ZM102.627 305.624C102.348 306.231 102.043 306.714 101.721 307.089L103.237 308.393C103.705 307.849 104.105 307.199 104.445 306.458L102.627 305.624ZM101.719 307.091C101.394 307.471 101.068 307.734 100.746 307.906L101.686 309.671C102.265 309.363 102.781 308.927 103.239 308.391L101.719 307.091ZM100.746 307.906C100.425 308.076 100.109 308.158 99.7866 308.165L99.8325 310.165C100.483 310.15 101.104 309.981 101.686 309.671L100.746 307.906ZM99.7918 308.165C99.4725 308.171 99.1325 308.101 98.7628 307.931L97.9286 309.749C98.54 310.03 99.1759 310.177 99.8272 310.165L99.7918 308.165ZM98.7628 307.931C98.3517 307.743 98.0645 307.516 97.8652 307.267L96.303 308.515C96.7272 309.046 97.281 309.452 97.9286 309.749L98.7628 307.931ZM97.8683 307.271C97.6536 306.999 97.5281 306.719 97.4735 306.421L95.5062 306.781C95.6228 307.418 95.8933 307.998 96.2998 308.511L97.8683 307.271ZM97.475 306.429C97.4222 306.126 97.443 305.823 97.5464 305.505L95.6445 304.887C95.4436 305.504 95.394 306.138 95.5047 306.773L97.475 306.429ZM96.1784 306.105L97.8321 306.864L98.6663 305.046L97.0126 304.287L96.1784 306.105ZM97.2713 305.746C97.1614 306.26 97.2049 306.789 97.4602 307.278L99.2331 306.352C99.2222 306.332 99.2008 306.287 99.2271 306.164L97.2713 305.746ZM97.4639 307.285C97.7182 307.763 98.1199 308.098 98.588 308.312L99.4222 306.495C99.2809 306.43 99.2437 306.372 99.2294 306.345L97.4639 307.285ZM98.588 308.312C99.4295 308.699 100.298 308.616 101.058 308.094L99.9256 306.446C99.7361 306.576 99.6135 306.582 99.4222 306.495L98.588 308.312ZM101.06 308.093C101.738 307.624 102.254 306.893 102.657 306.021L100.842 305.181C100.52 305.877 100.197 306.258 99.9235 306.447L101.06 308.093ZM102.167 304.692L102.113 304.668L101.278 306.485L101.333 306.51L102.167 304.692ZM101.076 304.791C100.957 304.885 100.827 304.951 100.678 304.991L101.201 306.922C101.609 306.811 101.983 306.623 102.315 306.361L101.076 304.791ZM100.686 304.989C100.529 305.03 100.359 305.045 100.167 305.026L99.9741 307.017C100.387 307.057 100.796 307.028 101.194 306.924L100.686 304.989ZM100.164 305.026C99.9836 305.009 99.7969 304.96 99.6005 304.87L98.7663 306.687C99.1535 306.865 99.5582 306.978 99.9771 307.017L100.164 305.026ZM99.6005 304.87C99.2817 304.723 99.0623 304.534 98.9082 304.31L97.2588 305.441C97.6365 305.992 98.1505 306.405 98.7663 306.687L99.6005 304.87ZM98.9082 304.31C98.7453 304.072 98.6519 303.808 98.6292 303.498L96.6345 303.644C96.6822 304.297 96.8899 304.903 97.2588 305.441L98.9082 304.31ZM98.6292 303.498C98.6078 303.204 98.6626 302.885 98.8274 302.525L97.0097 301.691C96.7219 302.318 96.5856 302.974 96.6345 303.644L98.6292 303.498ZM98.8295 302.521C99.0035 302.137 99.2317 301.868 99.5058 301.68L98.3718 300.032C97.7687 300.447 97.3166 301.014 97.0077 301.696L98.8295 302.521ZM99.5058 301.68C99.7876 301.486 100.105 301.376 100.481 301.355L100.368 299.358C99.6407 299.399 98.9673 299.622 98.3718 300.032L99.5058 301.68ZM100.483 301.354C100.848 301.333 101.257 301.409 101.722 301.625L102.564 299.811C101.85 299.479 101.113 299.314 100.366 299.358L100.483 301.354ZM101.968 301.132C101.556 300.943 101.112 300.86 100.653 300.913L100.884 302.9C100.946 302.892 101.023 302.899 101.134 302.949L101.968 301.132ZM100.647 300.914C100.219 300.966 99.8233 301.123 99.4743 301.374L100.643 302.997C100.724 302.939 100.801 302.91 100.889 302.899L100.647 300.914ZM99.4668 301.38C99.1039 301.646 98.8344 301.996 98.6536 302.4L100.48 303.216C100.531 303.102 100.589 303.037 100.651 302.992L99.4668 301.38ZM98.6577 302.391C98.4753 302.789 98.3859 303.216 98.4158 303.659L100.411 303.524C100.406 303.445 100.418 303.35 100.475 303.225L98.6577 302.391ZM98.4169 303.674C98.4519 304.099 98.5883 304.498 98.8238 304.855L100.493 303.753C100.445 303.68 100.418 303.604 100.41 303.509L98.4169 303.674ZM98.8322 304.867C99.0902 305.246 99.4405 305.525 99.8473 305.711L100.681 303.894C100.572 303.843 100.518 303.79 100.485 303.741L98.8322 304.867ZM99.8473 305.711C100.157 305.853 100.488 305.935 100.835 305.941L100.87 303.941C100.82 303.94 100.759 303.929 100.681 303.894L99.8473 305.711ZM100.835 305.941C101.161 305.947 101.481 305.891 101.786 305.77L101.052 303.91C100.999 303.931 100.941 303.942 100.87 303.941L100.835 305.941ZM101.786 305.77C102.086 305.652 102.357 305.481 102.593 305.262L101.235 303.794C101.178 303.847 101.118 303.884 101.052 303.91L101.786 305.77ZM102.593 305.262C102.84 305.033 103.033 304.762 103.173 304.459L101.355 303.624C101.321 303.698 101.281 303.751 101.235 303.794L102.593 305.262ZM103.177 304.449C103.354 304.053 103.433 303.63 103.399 303.194L101.405 303.347C101.412 303.436 101.399 303.527 101.351 303.634L103.177 304.449ZM103.399 303.194C103.366 302.761 103.226 302.356 102.986 301.994L101.319 303.099C101.372 303.178 101.398 303.255 101.405 303.347L103.399 303.194ZM102.986 301.994C102.731 301.608 102.381 301.321 101.968 301.132L101.134 302.949C101.231 302.994 101.283 303.044 101.319 303.099L102.986 301.994Z" fill="#B81C1C"/>
<rect x="67.1394" y="224.055" width="19.566" height="17.1159" rx="8" transform="rotate(26.4584 67.1394 224.055)" fill="#F38CAB"/>
<rect x="64.7722" y="222.877" width="19.566" height="17.1159" rx="8" transform="rotate(26.4584 64.7722 222.877)" fill="#F14080"/>
<path d="M134.643 228.705L150.689 240.048L151.923 238.302C158.842 228.514 158.308 215.296 150.623 206.098L134.607 218.852L134.643 228.705Z" fill="#F14080" stroke="#F38CAB" stroke-width="2"/>
<path d="M25.3818 293.74C25.3818 289.17 30.1504 286.165 34.273 288.136L44.1903 292.88C45.3203 293.42 46.1224 294.47 46.3472 295.702C48.0325 304.939 35.7973 309.797 30.6872 301.919L25.3818 293.74Z" fill="#F38CAB"/>
<path d="M22.3953 293.74C22.3953 289.17 27.1638 286.165 31.2865 288.136L41.2037 292.88C42.3337 293.42 43.1359 294.47 43.3606 295.702C45.0459 304.939 32.8108 309.797 27.7007 301.919L22.3953 293.74Z" fill="#F14080"/>
<path d="M25.4844 290.062V290.062C26.6035 288.743 28.5354 288.476 29.9702 289.443L30.8901 290.062" stroke="white" stroke-width="2"/>
<path d="M54.0574 299.329L55.0332 298.994C55.8656 298.708 56.7587 298.646 57.6224 298.816L60.2354 299.329" stroke="white" stroke-width="2"/>
<path d="M97.0014 327.32C100.308 324.133 99.1851 318.591 94.8992 316.943L84.2563 312.85C83.0603 312.39 81.716 312.535 80.6457 313.239C72.6932 318.474 77.6535 330.848 87.0195 329.14L97.0014 327.32Z" fill="#F38CAB"/>
<path d="M99.1247 329.523C102.431 326.336 101.308 320.794 97.0225 319.146L86.3796 315.053C85.1836 314.593 83.8392 314.738 82.7689 315.443C74.8165 320.677 79.7768 333.051 89.1428 331.343L99.1247 329.523Z" fill="#F14080"/>
<path d="M80.0272 317.079V317.079C81.0889 314.698 83.916 313.674 86.2566 314.823L87.5809 315.474" stroke="white" stroke-width="2"/>
<path d="M86.7975 331.004L92.5625 322.447L94.0084 323.111L88.2435 331.668L86.7975 331.004ZM83.7075 326.807L84.6105 325.471L91.8401 328.789L90.9371 330.125L83.7075 326.807ZM83.5442 329.511L89.3092 320.954L90.7551 321.618L84.9901 330.175L83.5442 329.511ZM85.7125 323.833L86.6201 322.499L93.8497 325.817L92.9421 327.151L85.7125 323.833Z" fill="#B81C1C"/>
<path d="M86.7975 331.004L86.3829 330.725L86.0539 331.213L86.589 331.459L86.7975 331.004ZM92.5625 322.447L92.771 321.993L92.3851 321.816L92.1478 322.168L92.5625 322.447ZM94.0084 323.111L94.4231 323.39L94.752 322.902L94.217 322.656L94.0084 323.111ZM88.2435 331.668L88.0349 332.122L88.4209 332.299L88.6581 331.947L88.2435 331.668ZM83.7075 326.807L83.2932 326.527L82.963 327.016L83.4989 327.262L83.7075 326.807ZM84.6105 325.471L84.819 325.017L84.4337 324.84L84.1963 325.191L84.6105 325.471ZM91.8401 328.789L92.2544 329.069L92.5845 328.581L92.0487 328.335L91.8401 328.789ZM90.9371 330.125L90.7285 330.58L91.1139 330.756L91.3513 330.405L90.9371 330.125ZM83.5442 329.511L83.1295 329.232L82.8006 329.72L83.3357 329.966L83.5442 329.511ZM89.3092 320.954L89.5177 320.5L89.1318 320.323L88.8945 320.675L89.3092 320.954ZM90.7551 321.618L91.1698 321.897L91.4987 321.409L90.9636 321.163L90.7551 321.618ZM84.9901 330.175L84.7816 330.629L85.1676 330.806L85.4048 330.454L84.9901 330.175ZM85.7125 323.833L85.2991 323.552L84.9664 324.041L85.504 324.287L85.7125 323.833ZM86.6201 322.499L86.8286 322.045L86.4445 321.868L86.2067 322.218L86.6201 322.499ZM93.8497 325.817L94.2631 326.098L94.5958 325.609L94.0582 325.362L93.8497 325.817ZM92.9421 327.151L92.7336 327.605L93.1178 327.781L93.3555 327.432L92.9421 327.151ZM87.2122 331.284L92.9772 322.727L92.1478 322.168L86.3829 330.725L87.2122 331.284ZM92.354 322.902L93.7999 323.565L94.217 322.656L92.771 321.993L92.354 322.902ZM93.5937 322.831L87.8288 331.389L88.6581 331.947L94.4231 323.39L93.5937 322.831ZM88.452 331.213L87.0061 330.55L86.589 331.459L88.0349 332.122L88.452 331.213ZM84.1217 327.087L85.0248 325.751L84.1963 325.191L83.2932 326.527L84.1217 327.087ZM84.402 325.926L91.6316 329.244L92.0487 328.335L84.819 325.017L84.402 325.926ZM91.4259 328.509L90.5228 329.845L91.3513 330.405L92.2544 329.069L91.4259 328.509ZM91.1456 329.671L83.916 326.353L83.4989 327.262L90.7285 330.58L91.1456 329.671ZM83.9589 329.791L89.7239 321.234L88.8945 320.675L83.1295 329.232L83.9589 329.791ZM89.1006 321.409L90.5466 322.072L90.9636 321.163L89.5177 320.5L89.1006 321.409ZM90.3404 321.338L84.5755 329.896L85.4048 330.454L91.1698 321.897L90.3404 321.338ZM85.1987 329.72L83.7528 329.057L83.3357 329.966L84.7816 330.629L85.1987 329.72ZM86.1259 324.114L87.0335 322.78L86.2067 322.218L85.2991 323.552L86.1259 324.114ZM86.4115 322.953L93.6412 326.271L94.0582 325.362L86.8286 322.045L86.4115 322.953ZM93.4363 325.535L92.5288 326.869L93.3555 327.432L94.2631 326.098L93.4363 325.535ZM93.1507 326.696L85.9211 323.378L85.504 324.287L92.7336 327.605L93.1507 326.696Z" fill="#B81C1C"/>
<path d="M22.7168 321.178C24.2942 317.913 28.2191 316.546 31.4832 318.124L72.7193 338.052C75.2389 339.269 76.278 342.311 75.0301 344.815C73.8616 347.161 71.0867 348.214 68.6561 347.235L26.1743 330.122C22.6506 328.703 21.0638 324.598 22.7168 321.178Z" fill="#F14080"/>
<path d="M22.4297 326.606C21.4301 322.438 25.722 318.981 29.5807 320.846L67.2346 339.043C69.39 340.085 70.0768 342.824 68.6679 344.759C67.6256 346.191 65.7392 346.724 64.1018 346.049L25.4347 330.118C23.9276 329.497 22.8099 328.191 22.4297 326.606Z" fill="#F38CAB"/>
<path d="M37.8401 328.675L52.1267 335.625" stroke="white" stroke-width="3"/>
<path d="M63.3242 229.827L64.1057 229.111C65.6589 227.687 67.9379 227.389 69.8044 228.367L72.5912 229.827" stroke="white" stroke-width="2"/>
<path d="M71.7849 234.68L68.1448 242.612L66.4678 241.842L69.3774 235.502L69.3309 235.481L66.9919 235.786L67.6744 234.299L70.2086 233.957L71.7849 234.68Z" fill="#B81C1C"/>
<path d="M71.7849 234.68L72.6938 235.097L73.1109 234.188L72.202 233.771L71.7849 234.68ZM68.1448 242.612L67.7277 243.521L68.6366 243.938L69.0537 243.029L68.1448 242.612ZM66.4678 241.842L65.559 241.425L65.1419 242.334L66.0507 242.751L66.4678 241.842ZM69.3774 235.502L70.2862 235.919L70.7033 235.01L69.7945 234.593L69.3774 235.502ZM69.3309 235.481L69.748 234.572L69.4867 234.452L69.2016 234.489L69.3309 235.481ZM66.9919 235.786L66.0831 235.369L65.3293 237.011L67.1213 236.778L66.9919 235.786ZM67.6744 234.299L67.5406 233.308L66.9952 233.381L66.7656 233.882L67.6744 234.299ZM70.2086 233.957L70.6257 233.048L70.3621 232.927L70.0748 232.966L70.2086 233.957ZM70.876 234.263L67.236 242.195L69.0537 243.029L72.6938 235.097L70.876 234.263ZM68.5619 241.703L66.8849 240.934L66.0507 242.751L67.7277 243.521L68.5619 241.703ZM67.3767 242.259L70.2862 235.919L68.4685 235.085L65.559 241.425L67.3767 242.259ZM69.7945 234.593L69.748 234.572L68.9138 236.39L68.9603 236.411L69.7945 234.593ZM69.2016 234.489L66.8626 234.794L67.1213 236.778L69.4602 236.473L69.2016 234.489ZM67.9008 236.203L68.5833 234.716L66.7656 233.882L66.0831 235.369L67.9008 236.203ZM67.8082 235.29L70.3424 234.948L70.0748 232.966L67.5406 233.308L67.8082 235.29ZM69.7915 234.866L71.3678 235.589L72.202 233.771L70.6257 233.048L69.7915 234.866Z" fill="#B81C1C"/>
<path d="M31.0643 300.108L31.9797 298.412L30.0657 298.72L29.9496 297.376L31.8791 297.332L30.6546 295.84L31.7495 295.051L32.7635 296.704L33.453 294.903L34.6685 295.461L33.7486 297.156L35.6625 296.847L35.7786 298.191L33.8537 298.238L35.0736 299.728L33.9788 300.516L32.9647 298.864L32.2797 300.666L31.0643 300.108Z" fill="#B81C1C"/>
<path d="M31.0643 300.108L30.6242 299.871L30.371 300.34L30.8557 300.563L31.0643 300.108ZM31.9797 298.412L32.4197 298.649L32.9012 297.757L31.9001 297.918L31.9797 298.412ZM30.0657 298.72L29.5676 298.763L29.6139 299.3L30.1453 299.214L30.0657 298.72ZM29.9496 297.376L29.9381 296.876L29.4056 296.888L29.4515 297.419L29.9496 297.376ZM31.8791 297.332L31.8906 297.831L32.9168 297.808L32.2656 297.014L31.8791 297.332ZM30.6546 295.84L30.3624 295.434L29.9303 295.745L30.2682 296.157L30.6546 295.84ZM31.7495 295.051L32.1757 294.79L31.8941 294.331L31.4573 294.646L31.7495 295.051ZM32.7635 296.704L32.3374 296.965L32.8678 297.829L33.2305 296.882L32.7635 296.704ZM33.453 294.903L33.6616 294.449L33.1769 294.226L32.9861 294.724L33.453 294.903ZM34.6685 295.461L35.108 295.699L35.3631 295.23L34.8771 295.006L34.6685 295.461ZM33.7486 297.156L33.3091 296.917L32.8238 297.811L33.8282 297.649L33.7486 297.156ZM35.6625 296.847L36.1607 296.804L36.1143 296.268L35.5829 296.353L35.6625 296.847ZM35.7786 298.191L35.7907 298.691L36.3226 298.678L36.2768 298.148L35.7786 298.191ZM33.8537 298.238L33.8416 297.738L32.8184 297.763L33.4668 298.555L33.8537 298.238ZM35.0736 299.728L35.3658 300.133L35.7975 299.822L35.4605 299.411L35.0736 299.728ZM33.9788 300.516L33.5526 300.778L33.8342 301.236L34.271 300.922L33.9788 300.516ZM32.9647 298.864L33.3909 298.602L32.8588 297.735L32.4973 298.686L32.9647 298.864ZM32.2797 300.666L32.0712 301.121L32.5572 301.344L32.7471 300.844L32.2797 300.666ZM31.5043 300.346L32.4197 298.649L31.5397 298.174L30.6242 299.871L31.5043 300.346ZM31.9001 297.918L29.9861 298.227L30.1453 299.214L32.0593 298.905L31.9001 297.918ZM30.5639 298.677L30.4478 297.333L29.4515 297.419L29.5676 298.763L30.5639 298.677ZM29.9611 297.876L31.8906 297.831L31.8676 296.832L29.9381 296.876L29.9611 297.876ZM32.2656 297.014L31.0411 295.523L30.2682 296.157L31.4926 297.649L32.2656 297.014ZM30.9469 296.245L32.0417 295.457L31.4573 294.646L30.3624 295.434L30.9469 296.245ZM31.3233 295.313L32.3374 296.965L33.1897 296.442L32.1757 294.79L31.3233 295.313ZM33.2305 296.882L33.92 295.082L32.9861 294.724L32.2966 296.525L33.2305 296.882ZM33.2445 295.358L34.46 295.915L34.8771 295.006L33.6616 294.449L33.2445 295.358ZM34.2291 295.222L33.3091 296.917L34.188 297.394L35.108 295.699L34.2291 295.222ZM33.8282 297.649L35.7421 297.341L35.5829 296.353L33.6689 296.662L33.8282 297.649ZM35.1644 296.89L35.2805 298.234L36.2768 298.148L36.1607 296.804L35.1644 296.89ZM35.7666 297.691L33.8416 297.738L33.8658 298.738L35.7907 298.691L35.7666 297.691ZM33.4668 298.555L34.6868 300.044L35.4605 299.411L34.2405 297.921L33.4668 298.555ZM34.7814 299.322L33.6866 300.11L34.271 300.922L35.3658 300.133L34.7814 299.322ZM34.4049 300.255L33.3909 298.602L32.5386 299.125L33.5526 300.778L34.4049 300.255ZM32.4973 298.686L31.8123 300.489L32.7471 300.844L33.4321 299.041L32.4973 298.686ZM32.4883 300.212L31.2728 299.654L30.8557 300.563L32.0712 301.121L32.4883 300.212Z" fill="#B81C1C"/>
<path d="M84.3437 213.769L102.11 218.873L105.145 230.457L91.8543 227.019C86.0555 225.52 82.6519 219.515 84.3437 213.769Z" fill="#F14080" stroke="#F38CAB" stroke-width="2"/>
<path d="M103.231 215.269L82.6306 210.108C85.7098 197.816 97.0339 189.256 109.705 189.425L111.1 209.279L103.231 215.269Z" fill="#F14080" stroke="#F38CAB" stroke-width="2"/>
<path d="M115.381 188.405L116.435 198.242L138.345 207.662L146.597 201.826L146.437 201.7C137.416 194.644 126.713 190.062 115.381 188.405Z" fill="#F14080" stroke="#F38CAB" stroke-width="2"/>
<path d="M145.906 241.001L126.298 228.218L114.346 232.617L131.19 244.107C136.085 247.447 142.777 246.034 145.906 241.001Z" fill="#F14080" stroke="#F38CAB" stroke-width="2"/>
<ellipse cx="120.896" cy="215.931" rx="25.0468" ry="20.8372" transform="rotate(25.7984 120.896 215.931)" fill="#F38CAB"/>
<ellipse cx="120.348" cy="215.267" rx="16.4369" ry="14.0112" transform="rotate(25.7984 120.348 215.267)" fill="#B81C1C"/>
<ellipse cx="120.544" cy="215.761" rx="9.78389" ry="7.18523" transform="rotate(25.7984 120.544 215.761)" fill="#F38CAB"/>
<path d="M121.169 214.467L119.293 218.348" stroke="white" stroke-width="2"/>
<path d="M125.278 214.059V214.059C128.041 216.848 125.745 221.559 121.839 221.175V221.175" stroke="white" stroke-width="2"/>
<path d="M124.566 203.3C125.606 202.942 126.74 203.49 127.105 204.527L127.373 205.289C127.965 206.973 126.223 208.53 124.616 207.753L123.584 207.255C121.977 206.478 122.116 204.145 123.803 203.563L124.566 203.3Z" fill="#F38CAB"/>
<path d="M134.42 220.014C134.945 221.134 134.343 222.457 133.157 222.791L132.176 223.067C130.539 223.528 129.11 221.855 129.815 220.304L130.361 219.103C131.067 217.552 133.261 217.544 133.986 219.089L134.42 220.014Z" fill="#F38CAB"/>
<path d="M117.078 228.011C116.07 228.437 114.903 227.96 114.467 226.943L114.146 226.196C113.437 224.547 115.056 222.876 116.708 223.551L117.77 223.985C119.422 224.661 119.452 227.006 117.818 227.697L117.078 228.011Z" fill="#F38CAB"/>
<path d="M106.252 211.616C105.699 210.506 106.266 209.169 107.442 208.807L108.413 208.508C110.035 208.01 111.505 209.652 110.841 211.221L110.326 212.436C109.662 214.005 107.471 214.063 106.708 212.532L106.252 211.616Z" fill="#F38CAB"/>
<path d="M112.451 197.722L110.192 198.874C101.316 203.398 98.0268 214.509 102.948 223.34V223.34" stroke="white" stroke-width="2"/>
<path d="M150.81 126.251L148.689 129.214C147.99 130.19 146.47 129.949 146.146 128.81C145.94 128.086 145.973 127.312 146.241 126.601L149.226 118.68C149.553 117.813 150.19 117.092 151.017 116.655C152.064 116.101 153.352 116.576 153.758 117.666L154.332 119.208C154.825 120.533 154.54 122.029 153.589 123.106L150.81 126.251Z" fill="#EEF140"/>
<ellipse cx="2.687" cy="1.98477" rx="2.687" ry="1.98477" transform="matrix(0.942255 0.334895 -0.352606 0.935772 153.011 111.405)" fill="#EEF140"/>
<path d="M137.085 120.334L136.858 121.784C136.56 123.694 133.833 123.883 133.322 122.029C132.908 120.525 133.011 118.921 133.614 117.465L134.921 114.314L130.791 112.699C130.406 112.549 130.137 112.204 130.086 111.797C129.948 110.682 131.197 109.898 132.152 110.5L135.273 112.471C135.489 112.607 135.728 112.703 135.98 112.755L142.824 114.16C143.065 114.209 143.3 114.279 143.528 114.368L145.715 115.223C146.448 115.509 146.797 116.33 146.496 117.057C146.145 117.904 145.168 118.32 144.313 117.986L143.708 117.75L138.776 115.821L137.463 118.99C137.284 119.422 137.157 119.873 137.085 120.334Z" fill="#EEF140"/>
<path d="M156.677 126.888L156.683 127.07C156.74 128.775 158.886 129.497 160.022 128.194C160.281 127.898 160.441 127.53 160.481 127.144C160.672 125.304 163.136 124.739 164.074 126.324L164.445 126.951C164.987 127.868 166.156 128.233 167.159 127.815C169.188 126.971 171.16 129.128 170.02 130.991L169.568 131.728C169.29 132.183 169.288 132.749 169.564 133.198C169.857 133.676 170.412 133.934 170.978 133.855L171.16 133.83C171.846 133.735 172.413 133.244 172.601 132.585L174.488 125.937C174.568 125.656 174.618 125.368 174.636 125.077L174.731 123.567C174.786 122.695 174.267 121.895 173.445 121.583C172.622 121.271 171.68 121.52 171.112 122.2L169.16 124.54C168.872 124.885 168.485 125.135 168.051 125.256C167.151 125.508 166.196 125.171 165.675 124.416L165.617 124.331C165.35 123.945 165.211 123.486 165.219 123.015L165.27 119.878C165.284 119.043 164.774 118.295 163.988 117.997C163.171 117.687 162.236 117.933 161.671 118.606L160.614 119.867C160.47 120.039 160.34 120.221 160.224 120.411L156.959 125.814C156.762 126.139 156.664 126.512 156.677 126.888Z" fill="#EEF140"/>
<path d="M189.54 123.955L182.102 122.78C181.144 122.629 180.163 122.736 179.266 123.09C177.815 123.663 176.703 124.834 176.231 126.286L175 130.078C174.85 130.54 174.742 131.014 174.679 131.494C174.199 135.136 176.147 139.211 179.883 139.789C179.923 139.795 179.96 139.8 179.994 139.803C180.547 139.85 181.424 140.094 182.21 140.347C183.033 140.612 183.944 140.471 184.603 139.929L184.757 139.802C185.663 139.056 185.772 137.734 185 136.849C184.622 136.415 184.078 136.148 183.495 136.109L181.436 135.972C180.975 135.942 180.527 135.81 180.125 135.586L178.869 134.888C178.305 134.575 178.052 133.913 178.271 133.321C178.52 132.645 179.288 132.297 179.984 132.546L182.889 133.587C183.207 133.701 183.538 133.778 183.875 133.817L185.154 133.965C185.525 134.007 185.896 133.899 186.18 133.665C186.747 133.199 186.814 132.371 186.331 131.818C186.166 131.629 185.949 131.488 185.707 131.413L182.809 130.517C182.681 130.478 182.556 130.428 182.436 130.37L180.381 129.372C179.691 129.037 179.575 128.127 180.161 127.644C181.098 126.873 182.328 126.522 183.549 126.677L186.067 126.997C186.5 127.052 186.922 127.171 187.318 127.35L188.607 127.932C189.331 128.259 190.184 128.149 190.791 127.649C191.652 126.94 191.756 125.684 191.022 124.843L190.897 124.7C190.55 124.303 190.069 124.038 189.54 123.955Z" fill="#EEF140"/>
<path d="M158.81 108.251L156.689 111.214C155.99 112.19 154.47 111.949 154.146 110.81C153.94 110.086 153.973 109.312 154.241 108.601L157.226 100.68C157.553 99.813 158.19 99.0918 159.017 98.6549C160.064 98.1011 161.352 98.5762 161.758 99.6659L162.332 101.208C162.825 102.533 162.54 104.029 161.589 105.106L158.81 108.251Z" fill="#EEF140"/>
<ellipse cx="2.687" cy="1.98477" rx="2.687" ry="1.98477" transform="matrix(0.942255 0.334895 -0.352606 0.935772 161.011 93.4047)" fill="#EEF140"/>
<path d="M145.085 102.334L144.858 103.784C144.56 105.694 141.833 105.883 141.323 104.029C140.909 102.525 141.011 100.921 141.614 99.4654L142.921 96.3136L138.792 94.6991C138.407 94.5485 138.137 94.2037 138.087 93.797C137.948 92.682 139.198 91.8977 140.152 92.5005L143.273 94.4708C143.489 94.6069 143.728 94.7031 143.98 94.7547L150.824 96.1596C151.065 96.209 151.301 96.2787 151.529 96.3678L153.716 97.223C154.448 97.5093 154.798 98.3303 154.496 99.0566C154.145 99.904 153.168 100.32 152.314 99.9861L151.708 99.7495L146.777 97.8212L145.463 100.99C145.284 101.422 145.157 101.873 145.085 102.334Z" fill="#EEF140"/>
<path d="M164.677 108.888L164.683 109.07C164.74 110.775 166.887 111.497 168.023 110.194C168.281 109.898 168.441 109.53 168.481 109.144C168.672 107.304 171.136 106.739 172.074 108.324L172.445 108.951C172.988 109.868 174.156 110.233 175.159 109.815C177.189 108.971 179.16 111.128 178.02 112.991L177.569 113.728C177.29 114.183 177.288 114.749 177.564 115.198C177.858 115.676 178.412 115.934 178.978 115.855L179.16 115.83C179.846 115.735 180.414 115.244 180.601 114.585L182.489 107.937C182.569 107.656 182.618 107.368 182.636 107.077L182.731 105.567C182.786 104.695 182.268 103.895 181.446 103.583C180.622 103.271 179.68 103.52 179.113 104.2L177.16 106.54C176.872 106.885 176.485 107.135 176.051 107.256C175.151 107.508 174.197 107.171 173.675 106.416L173.617 106.331C173.35 105.945 173.211 105.486 173.219 105.015L173.271 101.878C173.284 101.043 172.774 100.295 171.988 99.9967C171.171 99.6867 170.236 99.9325 169.671 100.606L168.614 101.867C168.47 102.039 168.34 102.221 168.225 102.411L164.959 107.814C164.762 108.139 164.664 108.512 164.677 108.888Z" fill="#EEF140"/>
<path d="M197.54 105.954L190.102 104.78C189.144 104.628 188.163 104.736 187.266 105.09C185.815 105.663 184.703 106.834 184.231 108.286L183 112.078C182.85 112.539 182.742 113.013 182.679 113.494C182.199 117.136 184.147 121.21 187.883 121.789C187.923 121.795 187.96 121.8 187.994 121.803C188.547 121.85 189.424 122.094 190.21 122.347C191.033 122.612 191.944 122.471 192.603 121.929L192.757 121.802C193.663 121.056 193.772 119.733 193 118.849C192.622 118.415 192.078 118.148 191.495 118.109L189.436 117.972C188.975 117.942 188.527 117.81 188.125 117.586L186.869 116.888C186.305 116.574 186.052 115.913 186.271 115.32C186.52 114.644 187.288 114.297 187.984 114.546L190.889 115.587C191.207 115.701 191.538 115.778 191.875 115.817L193.154 115.964C193.525 116.007 193.896 115.899 194.18 115.665C194.747 115.199 194.814 114.371 194.331 113.818C194.166 113.629 193.949 113.488 193.707 113.413L190.809 112.517C190.681 112.477 190.556 112.428 190.436 112.37L188.381 111.372C187.691 111.037 187.575 110.127 188.161 109.644C189.098 108.873 190.328 108.522 191.549 108.677L194.067 108.997C194.5 109.052 194.922 109.171 195.318 109.35L196.607 109.932C197.331 110.259 198.184 110.149 198.791 109.649C199.652 108.94 199.756 107.684 199.022 106.843L198.897 106.7C198.55 106.302 198.069 106.038 197.54 105.954Z" fill="#EEF140"/>
<path d="M167.81 91.2512L165.689 94.2141C164.99 95.1903 163.47 94.9485 163.146 93.8096C162.94 93.0855 162.973 92.3122 163.241 91.6012L166.226 83.6796C166.553 82.813 167.19 82.0918 168.017 81.6549C169.064 81.1011 170.352 81.5762 170.758 82.6659L171.332 84.2077C171.825 85.533 171.54 87.0294 170.589 88.1059L167.81 91.2512Z" fill="#EEF140"/>
<ellipse cx="2.687" cy="1.98477" rx="2.687" ry="1.98477" transform="matrix(0.942255 0.334895 -0.352606 0.935772 170.011 76.4045)" fill="#EEF140"/>
<path d="M154.085 85.3336L153.858 86.7843C153.56 88.6941 150.833 88.8826 150.322 87.0286C149.908 85.5246 150.011 83.9207 150.614 82.4654L151.921 79.3136L147.791 77.6991C147.406 77.5485 147.137 77.2037 147.086 76.797C146.948 75.682 148.197 74.8977 149.152 75.5005L152.273 77.4708C152.489 77.6069 152.728 77.7031 152.98 77.7547L159.824 79.1596C160.065 79.209 160.3 79.2787 160.528 79.3678L162.715 80.223C163.448 80.5093 163.797 81.3303 163.496 82.0566C163.145 82.904 162.168 83.3202 161.313 82.9861L160.708 82.7495L155.776 80.8212L154.463 83.99C154.284 84.4223 154.157 84.8733 154.085 85.3336Z" fill="#EEF140"/>
<path d="M173.677 91.8877L173.683 92.0699C173.74 93.7746 175.887 94.4968 177.023 93.1937C177.281 92.8975 177.441 92.5303 177.481 92.1438C177.672 90.3039 180.136 89.7395 181.074 91.3241L181.445 91.9507C181.988 92.8678 183.156 93.2325 184.159 92.8151C186.189 91.971 188.16 94.1285 187.02 95.9906L186.569 96.7278C186.29 97.1829 186.288 97.7492 186.564 98.198C186.858 98.6761 187.412 98.9338 187.978 98.8552L188.16 98.8299C188.846 98.7346 189.414 98.2441 189.601 97.5847L191.489 90.937C191.569 90.6559 191.618 90.3675 191.636 90.0769L191.731 88.5673C191.786 87.6952 191.268 86.895 190.446 86.5833C189.622 86.2709 188.68 86.5199 188.113 87.2002L186.16 89.5399C185.872 89.8846 185.485 90.1348 185.051 90.2563C184.151 90.5085 183.197 90.1708 182.675 89.4159L182.617 89.3314C182.35 88.9452 182.211 88.4858 182.219 88.0153L182.271 84.8779C182.284 84.0433 181.774 83.2946 180.988 82.9967C180.171 82.6867 179.236 82.9325 178.671 83.6063L177.614 84.8672C177.47 85.0386 177.34 85.2205 177.225 85.4114L173.959 90.8136C173.762 91.1388 173.664 91.5119 173.677 91.8877Z" fill="#EEF140"/>
<path d="M206.54 88.9546L199.102 87.7798C198.144 87.6285 197.163 87.7358 196.266 88.09C194.815 88.6631 193.703 89.8338 193.231 91.286L192 95.0777C191.85 95.5395 191.742 96.0136 191.679 96.4943C191.199 100.136 193.147 104.211 196.883 104.789C196.923 104.795 196.96 104.8 196.994 104.803C197.547 104.85 198.424 105.094 199.21 105.347C200.033 105.612 200.944 105.471 201.603 104.929L201.757 104.802C202.663 104.056 202.772 102.734 202 101.849C201.622 101.415 201.078 101.148 200.495 101.109L198.436 100.972C197.975 100.942 197.527 100.81 197.125 100.586L195.869 99.8882C195.305 99.5746 195.052 98.9131 195.271 98.3205C195.52 97.6446 196.288 97.2973 196.984 97.5463L199.889 98.5869C200.207 98.701 200.538 98.7783 200.875 98.8172L202.154 98.9646C202.525 99.0073 202.896 98.8989 203.18 98.6651C203.747 98.1987 203.814 97.3708 203.331 96.8178C203.166 96.6287 202.949 96.4881 202.707 96.413L199.809 95.5172C199.681 95.4776 199.556 95.4284 199.436 95.37L197.381 94.3722C196.691 94.0371 196.575 93.1268 197.161 92.6442C198.098 91.8728 199.328 91.5216 200.549 91.6768L203.067 91.9967C203.5 92.0517 203.922 92.1707 204.318 92.3497L205.607 92.9318C206.331 93.2591 207.184 93.1487 207.791 92.6488C208.652 91.9399 208.756 90.6839 208.022 89.8434L207.897 89.7002C207.55 89.3026 207.069 89.0381 206.54 88.9546Z" fill="#EEF140"/>
</svg>
