<svg width="744" height="813" viewBox="0 0 744 813" fill="none" xmlns="http://www.w3.org/2000/svg">
<path d="M335.354 809.122L340.126 683.84L391.432 611.057V749.464L445.125 797.19H418.791C412.528 797.19 406.309 796.14 400.394 794.082L354.444 778.1L360.41 809.122H335.354Z" fill="#4B1017" stroke="#731924" stroke-width="6"/>
<path d="M308.367 251.112L373.647 2.52564L463.328 226.289L739.523 125.546L522.567 351.207L650.871 646.323L456.489 470.935L394.483 602.57C391.856 608.146 388.815 613.516 385.383 618.636L305.414 737.95L309.423 421.731L3.96031 613.338L213.462 339.995L44.9122 289.731L160.514 267.539L308.367 251.112Z" fill="#EEF140"/>
<path d="M470.181 806.736V615.83H526.26V747.078L579.952 794.804H553.618C547.355 794.804 541.137 793.754 535.221 791.696L489.272 775.714L495.238 806.736H470.181Z" fill="#4B1017" stroke="#731924" stroke-width="6"/>
<path d="M525.067 615.83H494.045V603.898V591.967V568.103V545.433V535.291V525.15L491.658 508.445L508.055 525.15L516.561 535.291L525.067 545.433V568.103V591.967V603.898V615.83Z" fill="#4B1017"/>
<path d="M525.067 545.433L516.561 535.291M525.067 545.433H494.045M525.067 545.433V568.103M494.045 525.15L491.658 508.445L508.055 525.15M494.045 525.15H508.055M494.045 525.15V535.291M508.055 525.15L516.561 535.291M516.561 535.291H494.045M494.045 535.291V545.433M494.045 545.433V568.103M525.067 568.103H494.045M525.067 568.103V591.967M494.045 568.103V591.967M525.067 591.967H494.045M525.067 591.967V603.898M494.045 591.967V603.898M525.067 603.898V615.83H494.045V603.898M525.067 603.898H494.045" stroke="#731924" stroke-width="6"/>
<path d="M405.444 293.676C405.444 302.488 396.767 310.073 385.467 310.073C374.166 310.073 365.49 302.488 365.49 293.676C365.49 284.864 374.166 277.279 385.467 277.279C396.767 277.279 405.444 284.864 405.444 293.676Z" stroke="black" stroke-width="3"/>
<circle cx="395.012" cy="298.449" r="11.9316" fill="black"/>
<path d="M486.579 292.483C486.579 301.294 477.902 308.88 466.602 308.88C455.301 308.88 446.625 301.294 446.625 292.483C446.625 283.671 455.301 276.085 466.602 276.085C477.902 276.085 486.579 283.671 486.579 292.483Z" stroke="black" stroke-width="3"/>
<circle cx="474.954" cy="293.676" r="11.9316" fill="black"/>
</svg>
